<svg width="50" height="50" viewBox="0 0 50 50" fill="none" xmlns="http://www.w3.org/2000/svg">
<path fill-rule="evenodd" clip-rule="evenodd" d="M5.785 0H44.215C45.7493 0 47.2207 0.609489 48.3056 1.69439C49.3905 2.77928 50 4.25072 50 5.785V44.215C50 45.7493 49.3905 47.2207 48.3056 48.3056C47.2207 49.3905 45.7493 50 44.215 50H5.785C4.25072 50 2.77928 49.3905 1.69439 48.3056C0.609489 47.2207 0 45.7493 0 44.215V5.785C0 4.25072 0.609489 2.77928 1.69439 1.69439C2.77928 0.609489 4.25072 0 5.785 0ZM40.6283 13.8H30.3933V16.93H40.6283V13.8ZM24.485 33.6783C25.1317 32.4712 25.4453 31.1135 25.3933 29.745H25.4017C25.435 29.1706 25.3998 28.5943 25.2967 28.0283C25.2373 27.7211 25.1594 27.4178 25.0633 27.12C24.9445 26.6955 24.7819 26.2844 24.5783 25.8933C24.2982 25.3903 23.9249 24.9451 23.4783 24.5817C22.8492 24.0812 22.0966 23.7599 21.3 23.6517C22.263 23.3465 23.1015 22.7378 23.69 21.9167C24.2407 21.0529 24.5205 20.0441 24.4933 19.02C24.5644 18.0521 24.405 17.0811 24.0283 16.1867C23.6284 15.2997 23.0276 14.518 22.2733 13.9033C21.4818 13.2672 20.5564 12.8188 19.5667 12.5917C18.8196 12.4616 18.0614 12.4058 17.3033 12.425C16.16 12.3917 15.2183 12.3817 14.5717 12.3817H4.63167L4.595 37.1667L13.3117 37.1783C13.865 37.1817 14.6767 37.18 15.6583 37.16C16.8843 37.1878 18.1104 37.117 19.325 36.9483C20.562 36.7394 21.7341 36.2478 22.75 35.5117C23.4461 35.0239 24.0363 34.4003 24.485 33.6783ZM31.3017 29.6467H44.785L44.7933 28.205C44.8145 26.8367 44.5945 25.4753 44.1433 24.1833C43.7584 23.0661 43.1285 22.049 42.2997 21.2067C41.4709 20.3643 40.4642 19.718 39.3533 19.315C38.1194 18.867 36.8143 18.6473 35.5017 18.6667C34.2138 18.6507 32.9344 18.8769 31.73 19.3333C30.6322 19.7523 29.6354 20.3986 28.805 21.23C27.9675 22.0851 27.3201 23.1074 26.905 24.23C26.4372 25.5039 26.2079 26.8531 26.2283 28.21C26.2056 29.5872 26.4413 30.9564 26.9233 32.2467C27.352 33.3791 28.0246 34.4033 28.8933 35.2467C29.7675 36.0748 30.8069 36.7087 31.9433 37.1067C33.2013 37.5458 34.5261 37.7623 35.8583 37.7467C36.9275 37.7533 37.9916 37.5993 39.015 37.29C39.9636 37.0032 40.8544 36.5519 41.6467 35.9567C42.4182 35.3696 43.069 34.639 43.5633 33.805C44.0935 32.9004 44.4449 31.9023 44.5983 30.865H39.4967C39.4948 31.3246 39.3754 31.7761 39.15 32.1767C38.933 32.5483 38.6447 32.8735 38.3017 33.1333C37.9503 33.3963 37.5554 33.5954 37.135 33.7217C36.7193 33.853 36.286 33.9205 35.85 33.9217C35.3011 33.9252 34.7556 33.8356 34.2367 33.6567C33.7386 33.4839 33.2806 33.2123 32.89 32.8583C32.4786 32.4782 32.1398 32.0264 31.89 31.525C31.5984 30.9329 31.3999 30.2993 31.3017 29.6467ZM18.9667 21.2297C18.6531 21.7533 18.1633 22.148 17.585 22.3431L14.5817 22.3331L10.3667 22.3781V16.8931H14.4134L17.0917 16.9064C17.5545 16.8596 18.019 16.9776 18.4034 17.2397C18.7195 17.4754 18.9595 17.7988 19.0934 18.1697C19.2407 18.5857 19.2936 19.0291 19.2484 19.4681C19.306 20.0697 19.2091 20.6761 18.9667 21.2297ZM35.516 22.4849C36.4314 22.4849 37.323 22.7762 38.0618 23.3167C38.8303 23.9706 39.3651 24.8569 39.5851 25.8417H31.4185C31.6394 24.8505 32.1856 23.9616 32.9701 23.3167C33.7089 22.7762 34.6006 22.4849 35.516 22.4849ZM19.2917 27.0597C19.0909 26.7998 18.8391 26.5837 18.5517 26.4247C18.2188 26.2507 17.8473 26.1635 17.4717 26.1714L10.3667 26.1431V32.6664L17.5334 32.7014C17.9617 32.6648 18.3752 32.5271 18.74 32.2997C19.1023 32.0695 19.4063 31.7587 19.6284 31.3914C19.939 30.8734 20.1064 30.2821 20.1134 29.6781C20.1447 29.1771 20.0802 28.6748 19.9234 28.1981C19.7846 27.783 19.5705 27.3971 19.2917 27.0597Z" fill="white"/>
</svg>
