<svg width="50" height="50" viewBox="0 0 50 50" fill="none" xmlns="http://www.w3.org/2000/svg">
<g clip-path="url(#clip0_408_4)">
<path d="M25 50C20.0555 50 15.222 48.5338 11.1108 45.7868C6.99953 43.0397 3.79521 39.1353 1.90302 34.5671C0.0108322 29.9989 -0.484251 24.9723 0.480379 20.1228C1.44501 15.2732 3.82603 10.8187 7.32234 7.32234C10.8187 3.82603 15.2732 1.44501 20.1228 0.480379C24.9723 -0.484251 29.9989 0.0108322 34.5671 1.90302C39.1353 3.79521 43.0397 6.99953 45.7868 11.1108C48.5338 15.222 50 20.0555 50 25C49.9925 31.6281 47.3562 37.9826 42.6694 42.6694C37.9826 47.3562 31.6281 49.9925 25 50V50ZM25 2.08834C20.4685 2.08834 16.0388 3.43209 12.271 5.94966C8.50317 8.46722 5.56652 12.0455 3.83239 16.2321C2.09826 20.4187 1.64453 25.0254 2.52859 29.4699C3.41264 33.9143 5.59476 37.9968 8.79902 41.201C12.0033 44.4053 16.0857 46.5874 20.5302 47.4714C24.9746 48.3555 29.5814 47.9018 33.7679 46.1676C37.9545 44.4335 41.5328 41.4969 44.0504 37.7291C46.5679 33.9612 47.9117 29.5315 47.9117 25C47.9046 18.9256 45.4885 13.1021 41.1932 8.80681C36.898 4.51157 31.0744 2.0954 25 2.08834V2.08834Z" fill="#CBCBCB"/>
<path d="M13.1011 14.1628C15.2607 13.1524 17.5698 12.4181 19.9839 12C20.2804 12.536 20.6268 13.257 20.8656 13.8305C23.4318 13.4446 25.9745 13.4446 28.4935 13.8305C28.7323 13.257 29.0865 12.536 29.3857 12C31.8024 12.4181 34.1141 13.1551 36.2737 14.1682C40.6295 20.7504 41.8103 27.1692 41.2199 33.4968C38.3309 35.6543 35.5311 36.9648 32.7785 37.8225C32.0989 36.8871 31.4928 35.8928 30.9706 34.8449C31.9651 34.467 32.9176 34.0007 33.8176 33.4593C33.5788 33.2824 33.3453 33.0975 33.1196 32.9072C27.6302 35.4747 21.6659 35.4747 16.2421 32.9072C16.0138 33.0975 15.7803 33.2824 15.5441 33.4593C16.4468 34.0033 17.4019 34.4697 18.3964 34.8476C17.8742 35.8928 17.2707 36.8898 16.5884 37.8251C13.8332 36.9675 11.0308 35.657 8.14179 33.4968C7.44905 26.1615 9.3252 19.8017 13.1011 14.1628ZM30.2227 29.6054C31.8706 29.6054 33.222 28.067 33.222 26.1936C33.222 24.3203 31.8994 22.7792 30.2227 22.7792C28.546 22.7792 27.1946 24.3176 27.2235 26.1936C27.2209 28.067 28.546 29.6054 30.2227 29.6054ZM19.139 29.6054C20.7868 29.6054 22.1382 28.067 22.1382 26.1936C22.1382 24.3203 20.8157 22.7792 19.139 22.7792C17.4622 22.7792 16.1109 24.3176 16.1397 26.1936C16.1397 28.067 17.4622 29.6054 19.139 29.6054Z" fill="#CBCBCB"/>
</g>
<defs>
<clipPath id="clip0_408_4">
<rect width="50" height="50" fill="white"/>
</clipPath>
</defs>
</svg>
