<svg width="30" height="30" viewBox="0 0 30 30" fill="none" xmlns="http://www.w3.org/2000/svg">
<path d="M30 14.9987C29.9998 12.2434 29.2406 9.5414 27.8059 7.18915C26.3712 4.8369 24.3162 2.92527 21.8666 1.66398C19.417 0.402685 16.6673 -0.159536 13.9192 0.0389961C11.1711 0.237529 8.53072 1.18914 6.28783 2.78944C4.04493 4.38974 2.28613 6.57688 1.2044 9.11093C0.122665 11.645 -0.240215 14.428 0.155572 17.1547C0.551358 19.8814 1.69052 22.4464 3.44808 24.5683C5.20564 26.6903 7.51368 28.2871 10.119 29.1837C10.3298 29.0755 10.5106 28.917 10.6453 28.7221C10.7799 28.5272 10.8644 28.302 10.891 28.0667C10.891 27.2417 10.873 25.1197 10.873 25.1197C10.3499 25.1968 9.82173 25.2339 9.29301 25.2307C8.5452 25.2766 7.80314 25.0743 7.18215 24.6551C6.56117 24.2359 6.09602 23.6234 5.85901 22.9127C5.53337 22.0783 4.94094 21.3752 4.17401 20.9127C3.78601 20.6627 3.69701 20.3687 4.14601 20.2847C6.21801 19.8967 6.74601 22.6217 8.13201 23.0567C9.0891 23.355 10.1245 23.2723 11.022 22.8257C11.1502 22.0522 11.5772 21.3601 12.211 20.8987C8.69101 20.5617 6.60401 19.3457 5.52201 17.3917L5.40601 17.1727L5.13401 16.5517L5.05401 16.3297C4.70549 15.2308 4.53995 14.0822 4.56401 12.9297C4.53135 12.1379 4.66127 11.3479 4.94574 10.6084C5.23021 9.86882 5.66321 9.1954 6.21801 8.62965C5.76304 7.20389 5.85574 5.65975 6.47801 4.29865C6.47801 4.29865 8.00001 3.98665 10.882 6.03765C12.443 5.37265 16.606 5.31765 18.576 5.89065C19.783 5.09865 22 3.96865 22.887 4.28365C23.128 4.67065 23.649 5.79765 23.203 8.27465C24.4624 9.61795 25.139 11.4051 25.085 13.2457C25.082 14.2861 24.9527 15.3223 24.7 16.3317L24.57 16.7727C24.57 16.7727 24.495 16.9797 24.414 17.1787L24.314 17.3967C23.27 19.6777 21.127 20.5297 17.666 20.8837C18.788 21.5837 19.109 22.4677 19.109 24.8517C19.109 27.2357 19.077 27.5517 19.085 28.1037C19.1169 28.3315 19.2005 28.549 19.3292 28.7396C19.458 28.9302 19.6286 29.089 19.828 29.2037C22.7943 28.1943 25.3702 26.2817 27.1945 23.7342C29.0187 21.1866 29.9998 18.132 30 14.9987Z" fill="#171628"/>
</svg>
