<svg width="50" height="50" viewBox="0 0 50 50" fill="none" xmlns="http://www.w3.org/2000/svg">
<path d="M50 25.6794C49.9996 20.9621 48.7344 16.336 46.3431 12.3087C43.9519 8.28134 40.5271 5.0084 36.4444 2.84892C32.3617 0.689442 27.7788 -0.273144 23.1986 0.0667658C18.6184 0.406676 14.2179 2.03595 10.4797 4.77584C6.74155 7.51573 3.81022 11.2604 2.00733 15.599C0.204441 19.9375 -0.400359 24.7024 0.259286 29.3708C0.918931 34.0393 2.81753 38.4308 5.7468 42.0638C8.67606 45.6968 12.5228 48.4307 16.865 49.9658C17.2163 49.7806 17.5176 49.5092 17.7421 49.1755C17.9666 48.8418 18.1073 48.4563 18.1517 48.0533C18.1517 46.6408 18.1217 43.0077 18.1217 43.0077C17.2499 43.1398 16.3696 43.2034 15.4883 43.1978C14.242 43.2765 13.0052 42.9301 11.9703 42.2124C10.9353 41.4947 10.16 40.446 9.76501 39.2291C9.22228 37.8007 8.2349 36.5967 6.95668 35.8049C6.31001 35.3768 6.16168 34.8735 6.91001 34.7297C10.3633 34.0653 11.2433 38.7309 13.5533 39.4756C15.1485 39.9865 16.8741 39.8448 18.37 39.0801C18.5836 37.7559 19.2954 36.571 20.3517 35.7809C14.485 35.2039 11.0067 33.122 9.20334 29.7765L9.01001 29.4015L8.55668 28.3383L8.42334 27.9582C7.84249 26.0769 7.56659 24.1103 7.60668 22.137C7.55225 20.7816 7.76878 19.429 8.2429 18.1628C8.71702 16.8966 9.43868 15.7436 10.3633 14.775C9.60506 12.3339 9.75956 9.69013 10.7967 7.35979C10.7967 7.35979 13.3333 6.82561 18.1367 10.3372C20.7383 9.1986 27.6767 9.10443 30.96 10.0855C32.9717 8.72948 36.6667 6.79479 38.145 7.3341C38.5467 7.99669 39.415 9.92625 38.6717 14.1672C40.7707 16.467 41.8984 19.5268 41.8083 22.6781C41.8033 24.4594 41.5878 26.2336 41.1667 27.9617L40.95 28.7167C40.95 28.7167 40.825 29.0711 40.69 29.4118L40.5233 29.7851C38.7833 33.6904 35.2117 35.1491 29.4433 35.7552C31.3133 36.9537 31.8483 38.4672 31.8483 42.5489C31.8483 46.6306 31.795 47.1716 31.8083 48.1167C31.8616 48.5067 32.0008 48.8791 32.2154 49.2055C32.43 49.5319 32.7143 49.8036 33.0467 50C37.9905 48.2719 42.2837 44.9973 45.3242 40.6356C48.3646 36.274 49.9996 31.044 50 25.6794Z" fill="#CBCBCB"/>
</svg>
