<svg width="50" height="50" viewBox="0 0 50 50" fill="none" xmlns="http://www.w3.org/2000/svg">
<path fill-rule="evenodd" clip-rule="evenodd" d="M42.3933 0H7.60669C5.58923 0 3.65442 0.801392 2.22791 2.22791C0.801392 3.65442 0 5.58923 0 7.60669V42.3933C0 44.4108 0.801392 46.3456 2.22791 47.7721C3.65442 49.1986 5.58923 50 7.60669 50H42.3933C44.4108 50 46.3456 49.1986 47.7721 47.7721C49.1986 46.3456 50 44.4108 50 42.3933V7.60669C50 5.58923 49.1986 3.65442 47.7721 2.22791C46.3456 0.801392 44.4108 0 42.3933 0ZM43.0934 32.9717C43.0907 35.6553 42.0234 38.2283 40.1259 40.1259C38.2283 42.0234 35.6553 43.0907 32.9717 43.0934H17.0283C14.3447 43.0907 11.7717 42.0234 9.87415 40.1259C7.97656 38.2283 6.9093 35.6553 6.90662 32.9717V17.0283C6.9093 14.3447 7.97656 11.7717 9.87415 9.87415C11.7717 7.97656 14.3447 6.9093 17.0283 6.90662H32.9717C35.6553 6.9093 38.2283 7.97656 40.1259 9.87415C42.0234 11.7717 43.0907 14.3447 43.0934 17.0283V32.9717ZM32.9714 10.1548H17.0281C15.2059 10.157 13.4589 10.8818 12.1704 12.1704C10.8818 13.4589 10.157 15.2059 10.1548 17.0281V32.9714C10.157 34.7937 10.8818 36.5406 12.1704 37.8292C13.4589 39.1177 15.2059 39.8425 17.0281 39.8447H32.9714C34.7937 39.8425 36.5406 39.1177 37.8292 37.8292C39.1177 36.5406 39.8425 34.7937 39.8447 32.9714V17.0281C39.8425 15.2059 39.1177 13.4589 37.8292 12.1704C36.5406 10.8818 34.7937 10.157 32.9714 10.1548ZM24.9998 34.2031C23.1796 34.2031 21.4001 33.6633 19.8867 32.6521C18.3732 31.6407 17.1936 30.2035 16.4971 28.5217C15.8004 26.8401 15.6182 24.9896 15.9733 23.2043C16.3284 21.4191 17.205 19.7792 18.4921 18.4921C19.7792 17.205 21.4191 16.3284 23.2043 15.9733C24.9896 15.6182 26.8401 15.8004 28.5217 16.4971C30.2035 17.1936 31.6407 18.3732 32.6521 19.8867C33.6633 21.4001 34.2031 23.1796 34.2031 24.9998C34.2004 27.4398 33.23 29.7792 31.5046 31.5046C29.7792 33.23 27.4398 34.2004 24.9998 34.2031ZM34.5798 17.5448C34.1466 17.5448 33.7233 17.4164 33.363 17.1757C33.0029 16.9351 32.7223 16.593 32.5565 16.1929C32.3907 15.7927 32.3474 15.3524 32.4319 14.9275C32.5164 14.5027 32.725 14.1125 33.0312 13.8063C33.3375 13.5 33.7277 13.2914 34.1526 13.2069C34.5774 13.1223 35.0177 13.1658 35.4178 13.3315C35.818 13.4972 36.16 13.778 36.4008 14.1381C36.6414 14.4982 36.7698 14.9216 36.7698 15.3547C36.7698 15.6423 36.7131 15.9271 36.603 16.1929C36.493 16.4586 36.3317 16.7 36.1283 16.9033C36.0559 16.9757 35.9788 17.0427 35.8975 17.104C35.7501 17.215 35.589 17.3073 35.4178 17.3781C35.1521 17.4882 34.8674 17.5448 34.5798 17.5448ZM30.955 24.9999C30.955 28.2888 28.2888 30.955 24.9999 30.955C21.7111 30.955 19.0449 28.2888 19.0449 24.9999C19.0449 21.7111 21.7111 19.0449 24.9999 19.0449C28.2888 19.0449 30.955 21.7111 30.955 24.9999Z" fill="white"/>
</svg>
