<svg width="100" height="100" viewBox="0 0 100 100" fill="none" xmlns="http://www.w3.org/2000/svg">
<path d="M50 0C40.111 0 30.444 2.93245 22.2215 8.42652C13.9991 13.9206 7.59043 21.7295 3.80605 30.8658C0.0216644 40.0021 -0.968503 50.0555 0.960758 59.7545C2.89002 69.4536 7.65206 78.3627 14.6447 85.3553C21.6373 92.348 30.5465 97.11 40.2455 99.0393C49.9446 100.969 59.9979 99.9784 69.1342 96.194C78.2705 92.4096 86.0794 86.001 91.5735 77.7785C97.0676 69.5561 100 59.8891 100 50C100 36.7392 94.7322 24.0215 85.3554 14.6447C75.9785 5.26784 63.2608 0 50 0V0ZM90.4334 25.2033C92.1988 28.0719 93.6516 31.1216 94.7667 34.3L93.8267 34.6333C95.3671 39.0335 96.2347 43.6409 96.4 48.3L96.9267 48.2833C96.91 47.8767 96.8967 47.4733 96.8667 47.07C96.85 46.8133 96.8367 46.5567 96.8167 46.3L96.7467 45.53C96.7467 45.4033 96.7267 45.2733 96.7134 45.1467L96.6667 44.7733L96.58 44.0067L96.4734 43.24L96.42 42.8567L96.3567 42.4767L96.23 41.7133L96.0834 40.9533L96.0134 40.5733L95.93 40.1967L95.7667 39.44C95.5267 38.44 95.2767 37.44 94.97 36.44L95.1234 36.3933C95.4267 37.3933 95.68 38.3933 95.92 39.3933L96.0834 40.15L96.1667 40.53L96.24 40.91L96.3834 41.6733L96.51 42.4367L96.5734 42.82L96.63 43.2033L96.7367 43.9733L96.8234 44.7433L96.8667 45.1267C96.8667 45.2567 96.8933 45.3833 96.9034 45.5133L96.9734 46.2833C96.9933 46.5433 97.0067 46.8 97.0234 47.0567C97.0534 47.4633 97.0667 47.8667 97.0834 48.2733H97.3967C97.3967 48.4667 97.3967 48.66 97.4167 48.8567V49.44L95.6367 49.46C95.5991 46.1939 95.2136 42.9411 94.4867 39.7567C93.7548 36.5718 92.682 33.475 91.2867 30.52L91.9967 30.1867C91.4534 29.0367 90.86 27.9067 90.2267 26.8033L89.56 27.1967C89.35 26.8433 89.1467 26.4867 88.9267 26.1367L89.6667 25.6667C88.2637 23.3885 86.669 21.234 84.9 19.2267C84 18.21 83.0567 17.2267 82.0734 16.29C81.09 15.3533 80.0734 14.46 79 13.6233L79.13 13.46C80.1967 14.31 81.23 15.2067 82.22 16.1467C83.21 17.0867 84.1534 18.0767 85.0567 19.1C86.8342 21.1148 88.4356 23.2783 89.8434 25.5667L90.4334 25.2033ZM82.9534 80.0467L82.3167 79.4633C79.5527 82.4934 76.3787 85.1222 72.8867 87.2733L72.7767 87.0967C76.2503 84.9579 79.4085 82.3449 82.16 79.3333L81.9467 79.1367C84.2598 76.6044 86.2649 73.8072 87.92 70.8033C88.0867 70.5067 88.2534 70.2033 88.4 69.9033C90.2571 66.3313 91.6036 62.5163 92.4 58.57L92.8634 58.66C92.0604 62.6527 90.7028 66.5135 88.83 70.13L89.62 70.54C87.82 73.9849 85.5789 77.1807 82.9534 80.0467ZM88.7234 73.38C87.7674 74.9551 86.7188 76.4723 85.5834 77.9233L85.46 77.8267C86.593 76.3806 87.6382 74.8679 88.59 73.2967L88.7234 73.38ZM84.85 78.8333C83.6723 80.2505 82.4111 81.5962 81.0734 82.8633L80.9667 82.75C82.299 81.4873 83.5545 80.146 84.7267 78.7333L84.85 78.8333ZM57.3834 94.1433C56.1034 94.35 54.8145 94.5022 53.5167 94.6V94.4433C54.8078 94.3478 56.0922 94.1956 57.37 93.9867C58.6467 93.78 59.9134 93.5133 61.1667 93.1967L61.2067 93.3467C59.94 93.6622 58.6656 93.9256 57.3834 94.1367V94.1433ZM60.2134 94.5533C56.2092 95.4595 52.1005 95.8172 48 95.6167L48.03 94.99C52.0745 95.1814 56.1263 94.8282 60.0767 93.94L60.2134 94.5533ZM57.1034 91.1567L57.9034 90.98L58.0934 91.8L57.2734 91.98L57.1034 91.1567ZM66.7034 84.8233C68.9847 83.7013 71.1525 82.3617 73.1767 80.8233L74 81.9067C72.0966 83.3563 70.0687 84.6346 67.94 85.7267C67.73 85.8333 67.52 85.9467 67.3034 86.06C64.7853 87.2948 62.147 88.2677 59.43 88.9633L59.3134 88.5067C61.9993 87.8192 64.6074 86.8575 67.0967 85.6367L66.7034 84.8233ZM67.5334 78.9467L67.9967 78.65L68.9234 78.0567L69.8234 77.4167L70.27 77.0833L70.7034 76.75C70.9934 76.52 71.2834 76.2967 71.57 76.0833L72.4 75.36C72.54 75.24 72.6834 75.1233 72.8167 74.9967L73.2134 74.6167L73.6134 74.2367L73.8134 74.0467C73.88 73.9833 73.9434 73.92 74.0067 73.8533C74.51 73.3167 75.0334 72.8 75.5034 72.2333L75.8634 71.8167C75.9834 71.68 76.1067 71.5433 76.2167 71.3967L76.9 70.53C77.1334 70.2467 77.3367 69.94 77.5667 69.64L77.9 69.1933L78.06 68.9667C78.1134 68.8933 78.16 68.8133 78.21 68.7367L78.8034 67.81L78.9534 67.5767L79.0934 67.34L79.3667 66.86L79.64 66.3833L79.78 66.1433L79.9034 65.9L80.4067 64.9L80.53 64.6567L80.6467 64.4033L80.8734 63.9033L81.1 63.4C81.1367 63.3167 81.1767 63.2333 81.21 63.15L81.3134 62.8933L81.7167 61.8667C81.75 61.78 81.7867 61.6967 81.8167 61.61L81.9067 61.35L82.0834 60.8267L82.26 60.3033L82.3467 60.0433L82.4234 59.7767L82.7234 58.7167L82.7967 58.4533L82.86 58.1833L82.9834 57.6467L83.1067 57.11L83.17 56.84C83.19 56.75 83.2034 56.66 83.22 56.57C83.3467 55.8467 83.4934 55.1267 83.57 54.3933L83.64 53.8467C83.66 53.6633 83.69 53.4833 83.7 53.3L83.7834 52.2C83.7834 52.0167 83.8167 51.8367 83.82 51.6533V51.1L83.8334 50C83.831 45.1026 82.7677 40.2639 80.7167 35.8167L80.9067 35.7267C82.9732 40.2013 84.0434 45.0713 84.0434 50L84.0167 51.1067V51.6633C84.0167 51.8467 83.9934 52.03 83.98 52.2133L83.88 53.3333C83.88 53.5167 83.84 53.7 83.8167 53.8833L83.7467 54.4333C83.67 55.17 83.5234 55.8967 83.3967 56.6233L83.3334 56.8833L83.27 57.1533L83.1467 57.6933L83.02 58.2333L82.96 58.5033L82.8834 58.77L82.58 59.84L82.5034 60.1067L82.4167 60.37L82.24 60.8933L82.06 61.42L81.97 61.6833C81.94 61.77 81.9034 61.8533 81.87 61.94L81.4634 62.9733L81.3634 63.23C81.3267 63.3167 81.2867 63.4 81.25 63.4833L81.02 63.99L80.7934 64.4933L80.6767 64.7467L80.5534 64.9933L80.0467 65.9933L79.92 66.24L79.7834 66.4833L79.5067 66.9633L79.23 67.4433L79.09 67.6833L78.94 67.9167L78.3434 68.85C78.29 68.9267 78.2434 69.0067 78.19 69.0833L78.03 69.31L77.6967 69.76C77.48 70.06 77.2734 70.3667 77.03 70.6533L76.3434 71.5267C76.2334 71.6733 76.1067 71.81 75.9867 71.95L75.6267 72.37C75.1534 72.94 74.6267 73.46 74.12 73.9967C74.0567 74.0667 73.99 74.13 73.9234 74.1933L73.7234 74.3833L73.3234 74.7667L72.92 75.15C72.7867 75.2767 72.6434 75.3933 72.5034 75.5167L71.6667 76.24C71.38 76.4733 71.0867 76.7 70.7967 76.93L70.36 77.2633C70.2134 77.3733 70.06 77.48 69.91 77.5967L69.0067 78.24L68.0734 78.84L67.6067 79.1367L67.1234 79.4133L67.02 79.2333L67.5334 78.9467ZM67.4134 76.9L67.7467 76.6767C67.8067 76.64 67.8634 76.6067 67.92 76.5667L68.0867 76.4467L68.5634 77.1433L68.3934 77.2633L68.2167 77.38L67.8634 77.6067L67.4134 76.9ZM48.4434 20.5267C47.9267 20.5667 47.4067 20.6 46.8934 20.6467L46.87 20.4367C47.39 20.39 47.91 20.3567 48.4334 20.3133L50 20.2733V20.1667C50.78 20.1933 51.56 20.19 52.3334 20.2667L52.3 20.6867C52.55 20.7067 52.8 20.7233 53.05 20.7467L53.0934 20.3267C54.7989 20.5087 56.486 20.8343 58.1367 21.3L58.02 21.7067L58.7534 21.9133L59.4767 22.16C59.7167 22.2433 59.96 22.3167 60.1967 22.4067L60.9067 22.6867L61.0634 22.2967L61.5267 22.4767C61.6834 22.54 61.83 22.6133 61.9834 22.68L61.8134 23.0667L62.5 23.3767L62.6667 23C64.1084 23.6843 65.4958 24.4777 66.8167 25.3733L67.7934 26.0667C68.11 26.31 68.42 26.56 68.7367 26.8067L68.97 26.99L69.1967 27.1867L69.65 27.58C69.8 27.71 69.9534 27.8367 70.1 27.9733L70.5334 28.3867L69.8434 29.11L70.28 29.5267C70.3834 29.62 70.4734 29.7233 70.57 29.8233L70.8567 30.1233L71.1434 30.4267C71.24 30.5267 71.34 30.6233 71.4267 30.73L71.97 31.36L72.2434 31.6733L72.5 32.0067L73.0134 32.6733C73.1033 32.78 73.18 32.8933 73.26 33.0067L73.5 33.34L73.7434 33.6733C73.8234 33.7833 73.9067 33.8967 73.9767 34.0067C75.2026 35.8554 76.2178 37.8355 77.0034 39.91L76.36 40.15C75.5968 38.124 74.6072 36.1906 73.41 34.3867C73.34 34.2733 73.2567 34.1633 73.18 34.0533L72.9434 33.72L72.7067 33.3867C72.63 33.2767 72.5567 33.1633 72.47 33.0533L71.9667 32.4167L71.7167 32.0833L71.45 31.7767L70.9167 31.1633C70.8334 31.0567 70.7367 30.9633 70.6434 30.8633L70.3634 30.57L70.0834 30.2767C69.9867 30.1767 69.8967 30.0767 69.7967 29.9867L69.3734 29.58C64.1467 24.6132 57.2102 21.8467 50 21.8533V20.4833L48.4434 20.5267ZM41.3967 20.8867L41.4834 21.19L41.2067 21.2667L41.1167 20.9667L41.3967 20.8867ZM40.73 19.3267L40.4867 18.52L41.2967 18.29L41.52 19.1033L40.73 19.3267ZM45.9467 21.3L45.9767 21.51C44.3955 21.7326 42.8348 22.0826 41.31 22.5567L41.2467 22.3567C42.7793 21.8798 44.3477 21.5265 45.9367 21.3H45.9467ZM41.6667 20.8067L41.9467 20.7267L42.03 21.0333L41.7534 21.11L41.6667 20.8067ZM42.2934 18.8933L42.09 18.0767L42.91 17.8867L43.09 18.71L42.2934 18.8933ZM43.1467 20.75L42.8667 20.8167L42.79 20.51L43.0734 20.4433L43.1467 20.75ZM42.5867 20.88C42.49 20.9 42.4 20.9267 42.3067 20.9533L42.2267 20.6467C42.32 20.62 42.4134 20.5933 42.5067 20.5733L42.5867 20.88ZM45.4934 20.8233L44.3934 21.02C44.0234 21.0767 43.6634 21.1733 43.3 21.2567L42.7567 21.38L42.62 21.4133L42.4834 21.45L42.2167 21.5267L42.1667 21.3333L42.4367 21.2567L42.5734 21.2167L42.71 21.1867L43.26 21.06C43.6267 20.98 43.99 20.88 44.36 20.8233L45.47 20.6267L46.5867 20.4833L46.61 20.6933L45.4934 20.8233ZM43.3567 20.3767L43.64 20.3133L43.7067 20.62L43.4267 20.6867L43.3567 20.3767ZM43.8934 18.5433L43.7334 17.7167L44.56 17.57L44.6967 18.4L43.8934 18.5433ZM44.7834 20.0967L44.8367 20.4067L44.5534 20.4567L44.4967 20.1467L44.7834 20.0967ZM44.27 20.51L43.9867 20.56L43.9234 20.25L44.21 20.2L44.27 20.51ZM45.5067 18.2767L45.39 17.4433L46.2234 17.3367L46.3167 18.1733L45.5067 18.2767ZM46.5067 19.8467L46.5434 20.16L46.2567 20.1967L46.2167 19.8833L46.5067 19.8467ZM45.97 20.2333L45.6867 20.27L45.6667 19.9567L45.9567 19.92L45.97 20.2333ZM45.4 20.3067L45.1167 20.3567L45.0667 20.0467L45.3634 20L45.4 20.3067ZM42.7334 16.9733C40.3484 17.5 38.0272 18.2823 35.81 19.3067L35.72 19.1167C40.1949 17.0412 45.0673 15.963 50 15.9567L51.1067 15.9833H51.6634C51.8467 15.9833 52.03 16.0067 52.2134 16.02L53.3334 16.12C53.5167 16.12 53.7 16.16 53.8834 16.1833L54.4334 16.2533C55.17 16.33 55.8967 16.4767 56.6234 16.5867L56.8834 16.6667L57.1534 16.73L57.6934 16.8533L58.2334 16.98L58.5034 17.04L58.77 17.1167L59.84 17.42L60.1067 17.4967L60.37 17.5833L60.8934 17.76L61.42 17.94L61.6834 18.03C61.77 18.06 61.8534 18.0967 61.94 18.13L62.9734 18.5367L63.23 18.6367L63.4834 18.75L63.99 18.98L64.4934 19.2067L64.7467 19.3233L64.9934 19.4467L65.9934 19.9533L66.24 20.08L66.4834 20.2167L66.9634 20.4933L67.4434 20.77L67.6834 20.91L67.9167 21.06L68.85 21.6567L69.0834 21.81L69.31 21.97L69.76 22.3033C70.06 22.52 70.3667 22.7267 70.6534 22.97L71.5267 23.6567C71.6734 23.7667 71.81 23.8933 71.95 24.0133L72.37 24.3733C72.94 24.8467 73.46 25.3733 73.9967 25.88C74.0667 25.9433 74.13 26.01 74.1934 26.0767L74.3834 26.2767L74.7667 26.6767L75.15 27.08C75.2767 27.2133 75.3934 27.3567 75.5167 27.4967L76.24 28.3333C76.4734 28.62 76.7 28.9133 76.93 29.2033L77.2634 29.64C77.3734 29.7867 77.48 29.94 77.5967 30.09L78.24 30.9933L78.84 31.9267L79.1367 32.3933L79.4134 32.8767L79.2334 32.98L78.9567 32.5033L78.6434 32L78.05 31.0733L77.41 30.1733L77.0767 29.7267L76.7434 29.2933C76.5134 29.0033 76.29 28.7133 76.0767 28.4267L75.3334 27.6C75.2134 27.46 75.0967 27.3167 74.97 27.1867L74.59 26.7867L74.21 26.3867L74.02 26.1867C73.9567 26.12 73.8934 26.0567 73.8267 25.9933C73.29 25.49 72.7734 24.9667 72.2067 24.4967L71.79 24.1367C71.6534 24.0167 71.5167 23.8933 71.37 23.7833L70.5034 23.1C70.22 22.8667 69.9134 22.6633 69.6134 22.45L69.1667 22.1167L68.94 21.9567C68.8667 21.9033 68.7867 21.8567 68.71 21.8067L67.7834 21.2133L67.55 21.0633L67.3334 20.9367L66.8434 20.6667L66.3667 20.3933L66.1267 20.2567L65.8834 20.13L64.8834 19.6267L64.6667 19.5L64.4134 19.3833L63.9134 19.1567L63.41 18.93L63.16 18.82L62.9034 18.7167L61.8767 18.3133C61.79 18.28 61.7067 18.2433 61.62 18.2133L61.36 18.1233L60.8367 17.9467L60.3134 17.77L60.0534 17.6833L59.7867 17.6067L58.7267 17.3067L58.4634 17.2333L58.1934 17.17L57.6567 17.0467L57.12 16.9233L56.85 16.86C56.76 16.84 56.67 16.8267 56.58 16.81C55.8567 16.6833 55.1367 16.5367 54.4034 16.46L53.8567 16.39C53.6734 16.37 53.4934 16.34 53.31 16.33L52.21 16.2467C52.0267 16.2467 51.8467 16.2133 51.6634 16.21L51.11 16.1933L50 16.1667C47.5587 16.1694 45.1248 16.4343 42.74 16.9567L42.7334 16.9733ZM28.1334 22.2233L27.74 22.5333C27.6067 22.6367 27.4767 22.74 27.3534 22.8667L26.5967 23.5333L26.2167 23.8667L25.8534 24.2L25.1 23.3733L25.4734 23.0167L25.8634 22.6833L26.6434 22.0167C26.7734 21.9033 26.9067 21.7967 27.0434 21.6833L27.45 21.3667C27.72 21.1533 27.9867 20.9367 28.2634 20.73C29.3733 19.9135 30.5261 19.1569 31.7167 18.4633L32.2734 19.42C31.1172 20.0913 29.9988 20.8258 28.9234 21.62C28.6667 21.8067 28.3967 22.02 28.1334 22.2233ZM28.6867 26.0833C28.4767 26.2567 28.28 26.4467 28.0834 26.6367L27.5067 26.0233C27.71 25.83 27.91 25.6333 28.1234 25.4533L28.6867 26.0833ZM26.3134 27.2033L26.6034 26.9L26.7467 26.7467L26.9 26.6033L27.49 27.2L27.3334 27.3333L27.19 27.48L26.91 27.7767L26.3134 27.2033ZM26.3534 28.38C26.1667 28.58 25.9934 28.79 25.8134 28.9933L25.18 28.4433C25.3634 28.2333 25.54 28.0167 25.7334 27.81L26.3534 28.38ZM24.1134 12.9167L24.2034 13.0433C22.6976 14.0961 21.2572 15.2393 19.89 16.4667L19.7867 16.35C21.1575 15.1183 22.6024 13.9718 24.1134 12.9167ZM20.73 13.8667L21.3734 13.3333L21.9067 14L21.2767 14.5233L20.73 13.8667ZM22.03 12.8067L22.6967 12.3L23.1934 12.9667L22.5267 13.4567L22.03 12.8067ZM26.91 10C29.5113 8.49694 32.2546 7.25425 35.1 6.29L35.4067 7.18333C37.7951 6.36819 40.2483 5.75711 42.74 5.35667L42.7667 5.51C40.2751 5.90924 37.8218 6.51921 35.4334 7.33333L35.6534 7.97667C32.9259 8.91049 30.2967 10.1096 27.8034 11.5567L28.0134 11.92C25.5357 13.3555 23.2046 15.0301 21.0534 16.92L20.6367 16.4467C22.8196 14.5302 25.1841 12.831 27.6967 11.3733L26.91 10ZM51.5767 5.42L52.3067 5.45L53.0334 5.49667L53.3967 5.52L53.76 5.55L54.4867 5.61667L55.2134 5.69667C55.6967 5.74667 56.1767 5.82333 56.6567 5.88667C57.62 6.03667 58.5767 6.22 59.5267 6.41667L59.3434 7.25667C63.3519 8.13264 67.2167 9.57016 70.8234 11.5267L70.7234 11.71C67.1444 9.77093 63.31 8.34581 59.3334 7.47667L59.27 7.76333C55.9148 7.02766 52.4842 6.69199 49.05 6.76333C48.7167 6.76333 48.3834 6.78667 48.03 6.79667C44.0063 6.97688 40.0277 7.71965 36.21 9.00333L36.06 8.55667C39.9172 7.26357 43.936 6.51524 48 6.33333L47.96 5.44333C48.4467 5.42333 48.9334 5.40333 49.42 5.4C49.66 5.4 49.9034 5.4 50.1467 5.4H50.8767C51.11 5.41667 51.35 5.42667 51.5934 5.43333L51.5767 5.42ZM50.8567 4.93V4.78667C52.6984 4.8188 54.5363 4.96464 56.36 5.22333L56.34 5.38C54.5285 5.12226 52.7028 4.97643 50.8734 4.94333L50.8567 4.93ZM57.4934 5.54667L57.52 5.39C58.43 5.53667 59.3334 5.72333 60.2334 5.93C61.1334 6.13667 62.0234 6.37 62.9 6.63667L62.8567 6.79C61.9767 6.52 61.0867 6.29667 60.19 6.08C59.2934 5.86333 58.4167 5.70667 57.51 5.56L57.4934 5.54667ZM85.0334 21.4L84.91 21.5C83.3136 19.5528 81.56 17.74 79.6667 16.08L79.2167 16.5933C77.0442 14.6895 74.6907 13.0026 72.19 11.5567L71.98 11.92C69.5027 10.4847 66.8901 9.29679 64.18 8.37333L64.3834 7.77667C67.1321 8.71464 69.7825 9.91927 72.2967 11.3733L73.09 10C75.6909 11.5039 78.1381 13.2589 80.3967 15.24L79.7767 15.95C81.6756 17.6192 83.4338 19.4421 85.0334 21.4ZM92.5067 36.48L91.6867 36.7433C92.9275 40.6525 93.6119 44.7168 93.72 48.8167H93.51C93.4023 44.7361 92.7211 40.6909 91.4867 36.8L91.2067 36.8867C90.6882 35.251 90.0715 33.6481 89.36 32.0867C88.6468 30.5267 87.8432 29.0097 86.9534 27.5433L86.4134 26.6767C84.2359 23.2886 81.5985 20.2193 78.5767 17.5567L78.89 17.2033C81.944 19.8941 84.6094 22.9959 86.81 26.42L87.56 25.94C89.6626 29.222 91.3257 32.7655 92.5067 36.48ZM89.4634 28.2233L89.6 28.1467C90.4951 29.762 91.2878 31.4319 91.9734 33.1467L91.8267 33.2067C91.1437 31.4978 90.3544 29.8335 89.4634 28.2233ZM92.25 34.2833L92.3967 34.23C92.48 34.4433 92.5567 34.6633 92.6334 34.8967L92.86 35.5633L93.0734 36.23L93.18 36.5633L93.28 36.8967L93.4767 37.5633C93.5434 37.7833 93.6 38.0067 93.66 38.23C93.72 38.4533 93.7833 38.6733 93.8367 38.8967L94.0034 39.5633L93.85 39.5967L93.6867 38.93C93.6334 38.7067 93.5667 38.4867 93.51 38.2633C93.4534 38.04 93.39 37.82 93.3267 37.5967L93.13 36.93L93.03 36.5967L92.9234 36.2633L92.71 35.5967L92.4834 34.93C92.4067 34.7167 92.3334 34.4967 92.25 34.2833ZM93.17 57.7933C93.4836 56.0296 93.6907 54.2486 93.79 52.46H93.95C93.847 54.2485 93.6388 56.0293 93.3267 57.7933H93.17ZM93.2367 60.5167C92.4778 63.6637 91.3721 66.7168 89.94 69.62L89.5167 69.41C90.9328 66.5394 92.0273 63.5211 92.78 60.41L93.2367 60.5167ZM71.73 86.9467L71.8134 87.08C70.243 88.0465 68.6144 88.9148 66.9367 89.68L66.87 89.5367C68.5421 88.7749 70.1653 87.9099 71.73 86.9467ZM66.85 88.8533L66.4934 88.09L67.2334 87.74L67.61 88.4933L66.85 88.8533ZM67.96 87.3633L68.68 86.9767L69.0934 87.71L68.3534 88.1067L67.96 87.3633ZM73.6467 71.62C73.8334 71.42 74.0067 71.21 74.1867 71.0067L74.82 71.5567C74.6367 71.7667 74.46 71.9833 74.2667 72.19L73.6467 71.62ZM73.6867 72.7967L73.3967 73.1L73.2534 73.2533L73.1 73.3967L72.51 72.8L72.6667 72.6667L72.81 72.52L73.09 72.2233L73.6867 72.7967ZM74.7234 70.3867L75.2267 69.7433L75.8934 70.2633L75.3734 70.93L74.7234 70.3867ZM75.7234 69.0967L76.1967 68.43L76.8867 68.9167L76.4 69.5833L75.7234 69.0967ZM62 21.0233C67.7332 23.394 72.6335 27.4133 76.0801 32.5719C79.5266 37.7304 81.3642 43.796 81.36 50H80.62C80.6222 45.9783 79.8317 41.9956 78.2937 38.2796C76.7557 34.5637 74.5003 31.1873 71.6565 28.3435C68.8128 25.4997 65.4364 23.2444 61.7204 21.7063C58.0044 20.1683 54.0217 19.3778 50 19.38V18.64C54.1175 18.641 58.1947 19.4508 62 21.0233ZM58.0967 19L58.31 18.1867L59.1167 18.4167L58.8834 19.2233L58.0967 19ZM59.67 19.4567L59.9234 18.6533L60.72 18.92L60.4434 19.7167L59.67 19.4567ZM61.2167 19.99L61.51 19.2L62.2934 19.51L61.9767 20.29L61.2167 19.99ZM65.6634 22.06L66.0767 21.3233L66.8034 21.7433L66.3734 22.4667L65.6634 22.06ZM67.07 22.8967L67.52 22.1833L68.2267 22.6367L67.7567 23.3333L67.07 22.8967ZM68.43 23.8067L68.9167 23.1167L69.5834 23.6033L69.08 24.27L68.43 23.8067ZM69.7434 24.7833L70.2634 24.1167L70.93 24.6367L70.3934 25.2833L69.7434 24.7833ZM71.0067 25.8233L71.5567 25.19C71.7667 25.3733 71.9834 25.55 72.19 25.7433L71.62 26.3633C71.42 26.1667 71.21 26 71 25.8133L71.0067 25.8233ZM75.9667 31.2367L75.73 30.9033C75.6534 30.79 75.5634 30.6867 75.48 30.57L76.1467 30.06C76.23 30.1733 76.3234 30.2767 76.4034 30.3933L76.6467 30.7267L75.9667 31.2367ZM77.1367 31.4267L77.2567 31.5967C77.2967 31.6567 77.3334 31.7167 77.3734 31.7733L77.6 32.1267L76.8934 32.5867L76.6667 32.2433C76.63 32.1833 76.5967 32.1267 76.5567 32.07L76.4367 31.9033L77.1367 31.4267ZM74.9734 29.9333L74.7234 29.6L74.4534 29.29L75.0967 28.7467L75.37 29.08L75.63 29.4133L74.9734 29.9333ZM73.9167 28.6867C73.7434 28.4767 73.5534 28.28 73.3634 28.0833L73.9767 27.5067C74.17 27.71 74.3667 27.91 74.5467 28.1233L73.9167 28.6867ZM72.8 27.49L72.6667 27.3333L72.52 27.19L72.2234 26.91L72.8067 26.3033L73.11 26.5933L73.2634 26.7367L73.4067 26.89L72.8 27.49ZM78.9 36.1567L79.66 35.7933L79.9934 36.56L79.2234 36.8933L78.9 36.1567ZM78.62 42.7733L78.5867 42.6367L78.55 42.5L78.4734 42.2333L78.6767 42.1767L78.7534 42.4467L78.7934 42.5833L78.8234 42.72L78.95 43.27C79.03 43.6367 79.13 44 79.1867 44.37L79.3834 45.48L79.5267 46.5967L79.3167 46.62L79.1767 45.51L78.98 44.41C78.9234 44.04 78.8267 43.68 78.7434 43.3167L78.62 42.7733ZM78.7 45.9467L78.49 45.9767C78.2675 44.3955 77.9174 42.8348 77.4434 41.31L77.6434 41.2467C78.1202 42.7793 78.4736 44.3476 78.7 45.9367V45.9467ZM79.49 44.28L79.44 43.9967L79.75 43.9333L79.8 44.22L79.49 44.28ZM79.8534 44.5067L79.9034 44.7933L79.5934 44.8467L79.5434 44.5633L79.8534 44.5067ZM79.38 43.7167L79.3134 43.4367L79.6234 43.3667L79.6867 43.65L79.38 43.7167ZM79.25 43.1567L79.1834 42.8767L79.49 42.8L79.5567 43.0833L79.25 43.1567ZM79.12 42.5967C79.1 42.5 79.0734 42.41 79.0467 42.3167L79.3534 42.2367C79.38 42.33 79.4067 42.4233 79.4267 42.5167L79.12 42.5967ZM78.9667 42.04L78.89 41.7633L79.1934 41.6767L79.2734 41.9567L78.9667 42.04ZM78.81 41.4867L78.7334 41.21L79.0334 41.12L79.1134 41.4L78.81 41.4867ZM79.5634 46.8733C79.61 47.3933 79.6434 47.9133 79.6867 48.4367L79.7267 50.0033H79.5167L79.4734 48.4467C79.4333 47.93 79.4 47.41 79.3534 46.8967L79.5634 46.8733ZM79.6934 45.4133L79.6434 45.13L79.9534 45.08L80.0067 45.3667L79.6934 45.4133ZM80.0434 45.6533L80.08 45.9433L79.7667 45.9833L79.73 45.7L80.0434 45.6533ZM80.1167 46.23L80.1534 46.52L79.84 46.5567L79.8034 46.27L80.1167 46.23ZM80.19 46.8067C80.19 46.9033 80.21 47 80.2167 47.0967L79.9034 47.1267C79.9034 47.03 79.9034 46.9367 79.8767 46.84L80.19 46.8067ZM80.2367 47.3867L80.26 47.6767L79.9467 47.7L79.9234 47.4133L80.2367 47.3867ZM80.2834 47.9667L80.3034 48.2567L80 48.2733L79.9667 48L80.2834 47.9667ZM80.32 48.5467V48.84H80.0034V48.5533L80.32 48.5467ZM80.32 49.13V49.42H79.9867V49.1333L80.32 49.13ZM80.32 49.7133V50.0033H80.0034V49.7167L80.32 49.7133ZM71.72 29.14L72.3067 29.76L72.8667 30.4033C73.25 30.8267 73.59 31.2867 73.9434 31.7367C74.1267 31.9567 74.2767 32.1933 74.45 32.4267L74.9467 33.1233C75.1034 33.36 75.2533 33.6 75.41 33.84L75.64 34.2L75.7567 34.38L75.86 34.5633L75.68 34.6733L75.5767 34.49L75.46 34.31L75.23 33.9533L74.7734 33.24L74.28 32.55C74.1167 32.32 73.9467 32.0833 73.7767 31.8667C73.4234 31.4233 73.09 30.9667 72.7067 30.55L72.1534 29.9067L71.5667 29.29L71.72 29.14ZM74 33C75.2934 34.8099 76.3718 36.7641 77.2134 38.8233L77.02 38.9033C76.1837 36.8588 75.1132 34.9181 73.83 33.12L74 33ZM78.45 39.6667L78.76 40.5833L76.76 41.25L76.4734 40.4L78.45 39.6667ZM79.0467 58.05C79.687 55.5862 80.0592 53.0604 80.1567 50.5167H80.3667C80.1787 55.6499 78.8632 60.6789 76.5134 65.2467L76.3267 65.15C77.4855 62.8928 78.3963 60.5167 79.0434 58.0633L79.0467 58.05ZM79.7567 58.9133L79.86 58.58L80.1634 58.67L80.06 59.0033L79.7567 58.9133ZM79.9567 59.3367L79.8534 59.67L79.5534 59.57L79.6567 59.2367L79.9567 59.3367ZM78.1834 63.1L78.47 63.23C78.4234 63.3367 78.37 63.44 78.32 63.5433L78.0334 63.4133C78.08 63.3333 78.1334 63.22 78.18 63.1133L78.1834 63.1ZM76.6667 67.76L77.11 67.07L77.8234 67.52L77.37 68.2267L76.6667 67.76ZM77.54 66.3733L77.9467 65.6633L78.6834 66.0767L78.2634 66.8033L77.54 66.3733ZM78.6 62.9233L78.31 62.7967L78.4467 62.48L78.7367 62.6033L78.6 62.9233ZM78.58 62.1633L78.7134 61.83L79.0067 61.9467L78.87 62.28L78.58 62.1633ZM78.8467 61.53L78.9667 61.1967L79.2634 61.31L79.14 61.6433L78.8467 61.53ZM79.0867 60.8833L79.2034 60.55L79.5 60.6567L79.3834 60.99L79.0867 60.8833ZM79.3234 60.2367L79.44 59.9033L79.74 60.0067L79.62 60.34L79.3234 60.2367ZM80.0167 61.2167L80.8067 61.51L80.4967 62.2933L79.7167 61.9767L80.0167 61.2167ZM80.29 60.4433L80.55 59.67L81.3534 59.9233L81.0867 60.72L80.29 60.4433ZM80.7834 58.8833L81.0067 58.0967L81.82 58.31L81.59 59.1167L80.7834 58.8833ZM80.39 57.2567C80.9428 55.0582 81.2238 52.8002 81.2267 50.5333H83C82.9997 52.8936 82.7075 55.2448 82.13 57.5333L80.39 57.2567ZM82.03 49.59L82.01 48.7733L82.85 48.74L82.87 49.58L82.03 49.59ZM81.9667 47.9567L81.9067 47.14L82.7434 47.0633L82.8067 47.9033L81.9667 47.9567ZM81.8234 46.3233L81.72 45.5133L82.5534 45.3967L82.66 46.23L81.8234 46.3233ZM81.5967 44.7033L81.4534 43.9L82.28 43.74L82.4267 44.5667L81.5967 44.7033ZM81.2867 43.0967L81.1034 42.3L81.92 42.0967L82.11 42.9167L81.2867 43.0967ZM80.8934 41.51L80.67 40.72L81.4767 40.4767L81.7067 41.2867L80.8934 41.51ZM80.42 39.9433L80.1567 39.1667L80.95 38.8833L81.22 39.68L80.42 39.9433ZM79.8667 38.4033L79.5667 37.64L80.3434 37.3067L80.65 38.0867L79.8667 38.4033ZM78.2 30.0233L78.5834 29.75C79.6249 31.207 80.5479 32.7453 81.3434 34.35L81.4967 34.65L81.5734 34.8L81.6434 34.9533L81.92 35.5633C82.1034 35.9733 82.2967 36.3767 82.4534 36.7967C82.61 37.2167 82.7867 37.6267 82.94 38.0467L83.37 39.32L82.9234 39.4633L82.4967 38.21C82.3434 37.7933 82.1634 37.3867 82.0167 36.9733C81.87 36.56 81.6834 36.16 81.49 35.7567L81.2167 35.1533L81.15 35.0033L81.0734 34.8567L80.9234 34.56C80.139 32.9784 79.2306 31.4615 78.2067 30.0233H78.2ZM65.3634 18.0867L66.62 18.73L66.9334 18.8933L67.24 19.07L67.8534 19.4033C68.0567 19.5233 68.2634 19.6367 68.4634 19.7633L69.0567 20.1433L69.6534 20.5233L69.8 20.62L69.9434 20.7233L70.2334 20.9267L70.8067 21.3367C71 21.4733 71.1934 21.6067 71.3767 21.7567L72.4867 22.63C72.8467 22.9333 73.2 23.2433 73.5567 23.55L73.17 23.9867C69.8578 21.0289 66.0111 18.731 61.8367 17.2167L62.2134 16.1733L60.91 15.7333C60.6934 15.6567 60.47 15.5967 60.2434 15.5333L59.5767 15.3467C59.3567 15.2833 59.1367 15.2167 58.91 15.16L58.2434 15.0067L57.5767 14.85L57.2434 14.7733L56.91 14.7133L55.5534 14.47C55.1 14.4067 54.6434 14.3533 54.1867 14.2933L53.8534 14.25L53.6667 14.2467H53.4934L52.8067 14.1933L52.1234 14.1433C52.0067 14.1433 51.8934 14.1233 51.79 14.12H51.4567L51.41 15.2267H50.9134L50.9667 13.04C59.7097 13.2456 68.0952 16.5511 74.6267 22.3667L74.2934 22.7433L73.19 21.79L72.0434 20.89C71.8567 20.7367 71.6567 20.6 71.46 20.46L70.8667 20.0367L70.5667 19.8267L70.42 19.72L70.2667 19.6233L69.6667 19.23L69.0534 18.8367C68.8467 18.7067 68.6334 18.59 68.4234 18.4667L67.7934 18.1033L67.4767 17.9233C67.37 17.8633 67.26 17.81 67.1434 17.7533L65.8467 17.0867L64.5134 16.4833L64.0734 17.5L65.3634 18.0867ZM61.2934 16.3833L61.0234 17.18C60.7434 17.09 60.4667 16.9867 60.1834 16.9033L60.43 16.0967C60.72 16.1833 61 16.2867 61.2934 16.3833ZM60.05 16L59.81 16.8067L58.96 16.5667L59.1767 15.75L60.05 16ZM30.0234 21.7933L29.75 21.41C31.2071 20.3684 32.7453 19.4455 34.35 18.65L34.65 18.4967L34.8 18.42L34.9534 18.35L35.5634 18.0733C35.9734 17.89 36.3767 17.6967 36.7967 17.54C37.2167 17.3833 37.6267 17.2067 38.0467 17.0533L39.32 16.6233L39.4634 17.07L38.21 17.4967C37.7934 17.65 37.3867 17.83 36.9734 17.9767C36.56 18.1233 36.16 18.31 35.7567 18.5033L35.1534 18.7767L35.0034 18.8433L34.8567 18.92L34.56 19.07C32.9782 19.8565 31.4613 20.7671 30.0234 21.7933ZM32.5867 23.1067L32.2434 23.3333C32.1834 23.37 32.1267 23.4033 32.07 23.4433L31.9034 23.5633L31.4267 22.8667L31.5967 22.7467L31.7734 22.63L32.1267 22.4033L32.5867 23.1067ZM31.2534 24.0333L30.92 24.27C30.8067 24.3467 30.7034 24.4367 30.5867 24.52L30.0767 23.8533C30.19 23.77 30.2934 23.6767 30.41 23.5967L30.7434 23.3533L31.2534 24.0333ZM34.02 18.5867L33.9267 18.4C36.2013 17.2343 38.5952 16.3179 41.0667 15.6667C43.5444 15.0236 46.0851 14.6536 48.6434 14.5633V14.7733C43.5416 14.9548 38.5423 16.2567 34 18.5867H34.02ZM37.3267 16.0367C37.4334 15.9933 37.54 15.9467 37.66 15.9133L37.77 16.21C37.66 16.2433 37.5534 16.29 37.4367 16.33L37.3267 16.0367ZM37.9934 15.8L38.3267 15.69L38.4267 15.9867L38.0934 16.1L37.9934 15.8ZM38.66 15.5767L38.9934 15.4667L39.09 15.7667L38.7567 15.8767L38.66 15.5767ZM39.3267 15.36L39.66 15.2633L39.75 15.5667L39.4167 15.66L39.3267 15.36ZM39.9934 15.17L40.3267 15.0733L40.4134 15.3767L40.08 15.4733L39.9934 15.17ZM40.66 14.98L40.9934 14.8867L41.07 15.19L40.7367 15.2833L40.66 14.98ZM41.3267 14.8067L41.66 14.7267L41.7334 15.0367L41.4 15.1133L41.3267 14.8067ZM41.9934 14.65L42.3267 14.5733L42.3934 14.88L42.06 14.9567L41.9934 14.65ZM42.66 14.4933L42.9934 14.43L43.0534 14.74L42.72 14.8033L42.66 14.4933ZM68.03 11.16C62.6675 8.67657 56.8496 7.3283 50.9414 7.19981C45.0331 7.07132 39.1621 8.16538 33.6967 10.4133L33.6367 10.2667C36.3702 9.14003 39.2132 8.29998 42.12 7.76C50.9047 6.11768 59.9829 7.25609 68.09 11.0167L68.03 11.16ZM71.16 13.3767L70.9234 13.7867C68.4114 12.3319 65.7535 11.1454 62.9934 10.2467L63.14 9.79667C65.9262 10.7055 68.6096 11.9031 71.1467 13.37L71.16 13.3767ZM62.16 9.22L62.0234 9.67333C60.8478 9.32222 59.6567 9.02333 58.45 8.77667C57.2434 8.53 56.0311 8.33889 54.8134 8.20333C53.5934 8.06333 52.3711 7.97667 51.1467 7.94333C49.92 7.91333 48.69 7.94333 47.48 8.00667L47.4534 7.53667C48.6934 7.46333 49.9367 7.44 51.1767 7.47C52.4167 7.5 53.66 7.59333 54.8934 7.73333C56.1267 7.87333 57.3534 8.06667 58.56 8.31333C59.7667 8.56 60.9667 8.86 62.16 9.21333V9.22ZM34.5367 8.95333L33.91 9.19L33.29 9.44333C33.0834 9.52667 32.8734 9.61333 32.67 9.70333L32.0567 9.97333C31.8534 10.06 31.65 10.16 31.4467 10.2533C31.04 10.44 30.6434 10.64 30.2434 10.84L30.17 10.6967C30.5734 10.4967 30.9734 10.2967 31.38 10.11C31.5867 10.0167 31.7867 9.92 31.9934 9.83L32.61 9.56C32.8134 9.46667 33.02 9.38333 33.23 9.29667L33.8534 9.04333L34.48 8.80333C34.69 8.72333 34.9 8.64333 35.1134 8.57L35.1634 8.72C34.9534 8.78667 34.7434 8.86667 34.5367 8.94667V8.95333ZM44.29 7.83667L44.41 8.72C39.431 9.38485 34.614 10.948 30.1934 13.3333L29.77 12.55C34.2846 10.1112 39.2043 8.51192 44.29 7.83V7.83667ZM40.8467 9.6C44.431 8.79401 48.1062 8.4656 51.7767 8.62333V8.38667C52.1934 8.38667 52.61 8.43333 53.0267 8.45667C53.4434 8.48 53.86 8.53 54.2734 8.56333C55.1034 8.65667 55.94 8.75667 56.7567 8.89667C58.4081 9.1623 60.0412 9.53079 61.6467 10C63.2492 10.4589 64.8222 11.0155 66.3567 11.6667C67.8909 12.324 69.3846 13.072 70.83 13.9067L70.3834 14.6767C68.9667 13.8638 67.503 13.1359 66 12.4967C62.9948 11.2095 59.8437 10.2939 56.6167 9.77C55.81 9.63333 55 9.53333 54.1867 9.43667C53.78 9.4 53.3734 9.35667 52.9667 9.33C52.56 9.30333 52.1534 9.27333 51.7434 9.26L51.7634 8.76333C44.2066 8.43497 36.7055 10.1949 30.0834 13.85L30 13.7133C33.4037 11.8364 37.0553 10.4494 40.8467 9.59333V9.6ZM70.2 15L69.9634 15.41C67.5665 14.0215 65.0303 12.8886 62.3967 12.03L62.12 12.88C59.7049 12.0929 57.2186 11.5436 54.6967 11.24L54.86 9.88667C57.2327 10.171 59.5753 10.6663 61.86 11.3667C62.0867 11.4333 62.3134 11.51 62.5267 11.5833C65.1966 12.4516 67.7683 13.5967 70.2 15ZM47 9.33333C45.3425 9.45515 43.6939 9.67779 42.0634 10L42.0334 9.84333C43.6695 9.52133 45.3236 9.2987 46.9867 9.17667L47 9.33333ZM36.1867 11.57C35.99 11.6367 35.7967 11.71 35.6034 11.7833L35.02 12.0067L34.4434 12.2433C34.25 12.32 34.0567 12.4 33.8667 12.4833L33.2967 12.7333C33.1067 12.8167 32.92 12.91 32.73 12.9967C32.35 13.1667 31.98 13.3533 31.6067 13.54L31.5367 13.4C31.91 13.2133 32.2834 13.0267 32.6634 12.8533C32.8534 12.7667 33.04 12.6733 33.23 12.59L33.8034 12.34C33.9967 12.2533 34.19 12.1767 34.3834 12.0967L34.96 11.86L35.5467 11.6367C35.74 11.5633 35.9367 11.4867 36.1334 11.42L36.1867 11.57ZM42.2767 10.3433C46.1072 9.60583 50.0236 9.42062 53.9067 9.79333L53.8634 10.2367C50.0225 9.86771 46.1486 10.0518 42.36 10.7833C38.5756 11.5154 34.9182 12.7956 31.5034 14.5833L31.2967 14.1867C34.753 12.3807 38.4542 11.0883 42.2834 10.35L42.2767 10.3433ZM51.08 10.71V10.8667C50.1967 10.8667 49.3134 10.8433 48.43 10.8667C47.99 10.8667 47.55 10.9133 47.0967 10.94C46.8734 10.94 46.6567 10.9767 46.43 10.9967C46.2034 11.0167 45.99 11.03 45.7634 11.06V10.9033C45.9834 10.8733 46.2034 10.86 46.43 10.84C46.6567 10.82 46.87 10.7967 47.0967 10.7833C47.54 10.7567 47.98 10.7233 48.43 10.71C49.3134 10.6933 50.2 10.7 51.0867 10.7167L51.08 10.71ZM43.7267 14.62L43.3934 14.68L43.3334 14.37L43.6667 14.3067L43.7267 14.62ZM47.0167 12.5467L46.9467 11.6667C49.2577 11.4877 51.58 11.5123 53.8867 11.74C56.1888 11.974 58.4656 12.4124 60.69 13.05L60.44 13.9067C58.268 13.2835 56.0448 12.8551 53.7967 12.6267C51.5433 12.4034 49.2747 12.3766 47.0167 12.5467ZM68.7334 17.4267C66.6327 16.2143 64.4189 15.2096 62.1234 14.4267L62.7 12.74C65.0524 13.5414 67.3228 14.5661 69.48 15.8L69.5 15.7667C74.0663 18.4106 78.0724 21.9207 81.2934 26.1L79.8434 27.2033C76.805 23.2586 73.0324 19.9388 68.7334 17.4267ZM80.4 21.8767C82.8991 24.5717 85.0289 27.587 86.7334 30.8433L86.9434 30.7367C87.723 32.2136 88.4099 33.7377 89 35.3C89.1534 35.69 89.2834 36.0867 89.4234 36.4767C89.4967 36.6733 89.5567 36.8733 89.6234 37.0733C89.69 37.2733 89.7534 37.47 89.8134 37.6667C90.0534 38.4667 90.2867 39.27 90.48 40.08C91.2693 43.3276 91.6676 46.6579 91.6667 50H90.7667C90.7674 46.7296 90.3769 43.4709 89.6034 40.2933C89.4134 39.4967 89.1867 38.7133 88.9367 37.93C88.8767 37.7367 88.81 37.5433 88.7467 37.35C88.6834 37.1567 88.6267 36.96 88.5534 36.7667C88.4167 36.3833 88.29 35.9967 88.14 35.6167C87.5652 34.0872 86.8973 32.5944 86.14 31.1467L86.5834 30.9167C83.0787 24.2094 77.8048 18.5897 71.3334 14.6667L71.4167 14.53C74.7423 16.5476 77.7694 19.0204 80.41 21.8767H80.4ZM71.84 14.52L72.3067 13.76C76.6752 16.4556 80.5232 19.9151 83.6667 23.9733L82.96 24.52C79.8851 20.5449 76.118 17.1573 71.84 14.52ZM91.8167 50C91.8185 47.0967 91.518 44.2011 90.92 41.36L91.3834 41.2633C91.9865 44.1364 92.2903 47.0643 92.29 50H91.8167ZM92.5334 51.2C92.3944 56.3308 91.326 61.3939 89.38 66.1433L88.5534 65.81C90.4586 61.1612 91.5055 56.2055 91.6434 51.1833L92.5334 51.2ZM90.94 40.2467C90.3719 37.8486 89.591 35.506 88.6067 33.2467C88.1156 32.12 87.5778 31.0156 86.9934 29.9333C86.4089 28.8511 85.7756 27.7989 85.0934 26.7767L85.4867 26.5167C86.1734 27.5544 86.8145 28.6189 87.41 29.71C88 30.8 88.5434 31.92 89.04 33.0433C90.0304 35.3238 90.8168 37.6875 91.39 40.1067L90.94 40.2467ZM88.2 63.1467C86.9312 66.8309 85.1347 70.3115 82.8667 73.48L82.5067 73.22C87.0224 66.9182 89.5959 59.433 89.91 51.6867L90.3567 51.7067C90.1942 55.6042 89.4677 59.4575 88.2 63.1467ZM88.7567 63.1833C88.2152 64.7617 87.5808 66.3066 86.8567 67.81L86.7167 67.74C87.4375 66.2433 88.0686 64.705 88.6067 63.1333L88.7567 63.1833ZM86.86 42.71L88.61 42.3767C89.1019 44.888 89.3508 47.4409 89.3534 50C89.3261 55.1932 88.302 60.3329 86.3367 65.14L84.69 64.4433C86.5888 59.8028 87.567 54.8373 87.57 49.8233C87.5594 47.4351 87.3217 45.0532 86.86 42.71ZM84.1934 37.9633L84.3034 38.2967L84.0067 38.3967L83.8934 38.0633L84.1934 37.9633ZM83.7834 37.7433C83.75 37.6333 83.7034 37.5267 83.6634 37.41L83.9567 37.3C84 37.4067 84.0467 37.5133 84.08 37.6333L83.7834 37.7433ZM84.4167 38.62L84.5267 38.9533L84.2267 39.05L84.1167 38.7167L84.4167 38.62ZM84.6334 39.2867L84.73 39.62L84.4267 39.71L84.3334 39.3767L84.6334 39.2867ZM84.8234 39.9533L84.92 40.2867L84.6167 40.3733L84.52 40.04L84.8234 39.9533ZM85.0134 40.62L85.1067 40.9533L84.8034 41.03L84.71 40.6967L85.0134 40.62ZM85.1867 41.2867L85.2667 41.62L84.9567 41.6933L84.88 41.36L85.1867 41.2867ZM85.3434 41.9533L85.42 42.2867L85.1134 42.3533L85.0367 42.02L85.3434 41.9533ZM85.5 42.62C85.5234 42.7333 85.54 42.8467 85.5634 42.9533L85.2534 43.0133C85.2334 42.9033 85.2133 42.7867 85.19 42.68L85.5 42.62ZM85.6234 43.3033L85.6867 43.6367L85.3734 43.6933L85.3134 43.36L85.6234 43.3033ZM84.27 34.5667C83.3373 32.5065 82.2217 30.5342 80.9367 28.6733L81.67 28.1667C82.9833 30.0721 84.1234 32.0913 85.0767 34.2C86.0241 36.3096 86.7783 38.5008 87.33 40.7467L86.4667 40.96C85.9294 38.7763 85.1964 36.6455 84.2767 34.5933L84.27 34.5667ZM80.4767 23.5C83.0376 26.4402 85.1596 29.7354 86.7767 33.2833L86.37 33.47C83.1531 26.4143 77.9588 20.4431 71.4167 16.28L71.6567 15.9033C74.9463 17.9988 77.9168 20.5573 80.4767 23.5ZM72.37 15.8533L72.4567 15.72C73.1567 16.1733 73.8367 16.6633 74.51 17.1567C75.1834 17.65 75.8434 18.1567 76.4667 18.72L76.3667 18.84C75.7334 18.2967 75.0767 17.7867 74.4134 17.2833C73.75 16.78 73.07 16.3033 72.37 15.8533ZM80.6667 23.1433L80.7834 23.0367C80.9234 23.1933 81.0567 23.37 81.19 23.5133L81.5967 23.99L81.9867 24.4767L82.1834 24.72L82.3734 24.97L82.7534 25.4667C82.88 25.6333 83 25.8 83.1234 25.97C83.3734 26.3033 83.6067 26.6367 83.8467 26.9933L83.7167 27.08C83.4767 26.7467 83.2467 26.3967 82.9967 26.0633L82.63 25.56L82.25 25.0667L82.06 24.8167L81.8634 24.5767L81.4734 24.09L81.0734 23.6133C80.94 23.4567 80.8067 23.2967 80.6667 23.1433ZM87.17 34.1433C88.1068 36.3435 88.8463 38.6224 89.38 40.9533L89.5334 41.65C90.1104 44.3958 90.4008 47.1942 90.4 50H89.93C89.9306 47.2278 89.6435 44.463 89.0734 41.75L88.2 41.9333C87.6791 39.4475 86.9143 37.0191 85.9167 34.6833L87.17 34.1433ZM81.7267 26.81C82.7734 28.2394 83.7233 29.7372 84.57 31.2933L84.43 31.37C83.5897 29.8183 82.6442 28.3259 81.6 26.9033L81.7267 26.81ZM85.9534 65.88L85.82 66.1867L85.6767 66.4867C85.5834 66.6867 85.4934 66.8867 85.3967 67.0867C85.1967 67.4833 85.0067 67.88 84.7967 68.27C84.3867 69.0567 83.9434 69.8233 83.48 70.5767L83.3467 70.4967C83.8067 69.7433 84.25 68.98 84.6567 68.1967C84.8667 67.81 85.0567 67.4133 85.2534 67.0167C85.35 66.82 85.44 66.62 85.5367 66.42L85.6767 66.12L85.8067 65.8167L85.9534 65.88ZM84.7334 66.5267C82.738 70.7136 80.0055 74.5074 76.6667 77.7267L76.05 77.0833C79.3177 73.9424 81.9917 70.2374 83.9434 66.1467L84.7334 66.5267ZM79.4667 75.59C79.62 75.42 79.7667 75.2567 79.9167 75.07C80.0667 74.8833 80.2167 74.72 80.36 74.54L80.7934 74.0067L81.01 73.7367L81.22 73.4633L81.64 72.9167L82.0467 72.3633C82.18 72.1767 82.3167 71.9933 82.4467 71.8033L82.5767 71.8933C82.4467 72.0833 82.3067 72.2667 82.1734 72.4533L81.7634 73.0133L81.3434 73.56L81.1334 73.8333L80.9167 74.1033L80.48 74.6433C80.3367 74.82 80.1834 74.9933 80.0367 75.17C79.89 75.3467 79.74 75.5233 79.5834 75.6933L79.1234 76.21L79.0067 76.1033L79.4667 75.59ZM90.7534 52.3033H90.9134C90.8167 53.971 90.623 55.6316 90.3334 57.2767L90.1767 57.2467C90.4683 55.612 90.6609 53.9612 90.7534 52.3033ZM76.6267 25.1L76.9834 25.4733L77.3167 25.8633L77.9834 26.6433C78.0967 26.7733 78.2034 26.9067 78.3167 27.0433L78.6334 27.45C78.8467 27.72 79.0634 27.9867 79.27 28.2633C80.0865 29.3733 80.8431 30.526 81.5367 31.7167L80.58 32.2733C79.9087 31.1172 79.1742 29.9988 78.38 28.9233C78.1834 28.6567 77.97 28.3967 77.7667 28.1333L77.4567 27.74C77.3534 27.6067 77.25 27.4767 77.14 27.3533L76.4734 26.5933L76.14 26.2167L75.8067 25.8533L76.6267 25.1ZM81.4134 34L81.6 33.9067C82.7671 36.1876 83.6835 38.5883 84.3334 41.0667C84.9764 43.5444 85.3464 46.0851 85.4367 48.6433H85.2267C85.0452 43.5416 83.7433 38.5423 81.4134 34ZM84.2567 59.1733L84.01 60.0467L83.2034 59.8067L83.4434 58.9567L84.2567 59.1733ZM83.9034 60.4267C83.8167 60.7167 83.7133 61 83.6167 61.29L82.82 61.02C82.91 60.74 83.0134 60.4633 83.0967 60.18L83.9034 60.4267ZM83.81 62.2L84.25 60.8967C84.3267 60.68 84.3867 60.4567 84.45 60.23L84.6367 59.5633C84.7 59.3433 84.7667 59.1233 84.8234 58.8967L84.9767 58.23L85.1334 57.5633L85.21 57.23L85.27 56.8967L85.5134 55.54C85.5767 55.0867 85.63 54.63 85.69 54.1733L85.7334 53.84L85.7534 53.67V53.4967L85.8067 52.81L85.8567 52.1267C85.8567 52.01 85.8767 51.8967 85.88 51.7933V51.46L84.7734 51.4133V50.9167L86.96 50.97C86.7498 59.7258 83.4307 68.121 77.5967 74.6533L77.22 74.32C77.5367 73.9533 77.8567 73.5867 78.1734 73.2167L79.0734 72.0733C79.2267 71.8833 79.3634 71.6833 79.5034 71.4867L79.9267 70.89L80.1367 70.5933L80.2434 70.4467L80.34 70.2933L80.7334 69.68L81.1267 69.0667C81.2567 68.86 81.3734 68.6467 81.4967 68.4367L81.86 67.8067L82.04 67.49C82.1 67.3833 82.1534 67.2733 82.21 67.1567L82.8767 65.86L83.48 64.5267L82.48 64.0867L81.8967 65.3767L81.2534 66.6333C81.2 66.7367 81.1467 66.8433 81.09 66.9467L80.9134 67.2533L80.5634 67.8667C80.4434 68.07 80.33 68.2767 80.2034 68.4767L79.8234 69.07L79.4434 69.6667L79.3467 69.8133L79.2434 69.9567L79.04 70.2467L78.63 70.82C78.4934 71.0133 78.36 71.2067 78.21 71.39L77.3367 72.5C77.0334 72.86 76.7234 73.2133 76.4167 73.57L75.98 73.1833C78.9378 69.8711 81.2357 66.0244 82.75 61.85L83.81 62.2ZM76.2534 78.89C76.4234 78.7367 76.5867 78.5767 76.7534 78.4167L77.25 77.94L77.7334 77.45C77.8934 77.2867 78.0667 77.1167 78.2134 76.9533L78.3267 77.0633C78.17 77.2333 77.9934 77.3967 77.8467 77.56L77.36 78.05L76.86 78.53C76.6967 78.69 76.5267 78.8633 76.36 79.0033C76.0267 79.3133 75.6934 79.63 75.33 79.9267L74.8067 80.38L74.2767 80.82L74.1767 80.6967L74.7067 80.26L75.2267 79.81C75.5767 79.5133 75.9134 79.2033 76.2534 78.8933V78.89ZM74.5267 76.98L74.1367 77.3133L73.3567 77.98C73.2267 78.0933 73.0934 78.2 72.9567 78.3133L72.55 78.63C72.28 78.8433 72.0134 79.06 71.7367 79.2667C70.6267 80.0831 69.474 80.8398 68.2834 81.5333L67.7267 80.5767C68.8772 79.9048 69.99 79.1704 71.06 78.3767C71.3267 78.18 71.5867 77.9667 71.85 77.7633L72.2434 77.4533C72.3767 77.35 72.5067 77.2467 72.63 77.1367L73.39 76.47L73.7667 76.1367L74.13 75.8033L74.8834 76.61L74.5267 76.98ZM74.47 82.6067C75.775 81.6248 77.0205 80.5662 78.2 79.4367C79.3803 78.3038 80.4933 77.1029 81.5334 75.84C82.5686 74.5768 83.5281 73.2534 84.4067 71.8767L84.8267 72.1433C88.8994 65.7625 91.1261 58.3787 91.26 50.81H91.4167C91.2812 58.4036 89.0465 65.8116 84.96 72.2133L85.16 72.3433C84.2602 73.7489 83.2797 75.1012 82.2234 76.3933C81.1609 77.6794 80.0257 78.9036 78.8234 80.06C77.6137 81.2246 76.3371 82.3175 75 83.3333C73.6644 84.3347 72.2709 85.2563 70.8267 86.0933L70.38 85.3233C71.7955 84.5001 73.1612 83.594 74.47 82.61V82.6067ZM88.0767 69.0067C86.9636 71.2273 85.6587 73.3465 84.1767 75.34C82.6929 77.334 81.0401 79.1964 79.2367 80.9067L78.9034 80.5733C80.6915 78.8826 82.3298 77.0401 83.8 75.0667C85.2695 73.0947 86.5633 70.9978 87.6667 68.8L88.0767 69.0067ZM71.1467 86.6267L70.91 86.2167C73.4222 84.7615 75.7769 83.0501 77.9367 81.11L78.25 81.4633C76.0661 83.4251 73.6857 85.1564 71.1467 86.63V86.6267ZM86.61 72.2067C89.6772 67.1563 91.6624 61.5241 92.44 55.6667L92.5934 55.6867C91.8179 61.5674 89.8256 67.222 86.7434 72.29C83.6581 77.3535 79.5658 81.7295 74.72 85.1467L74.63 85.02C79.4578 81.6147 83.5352 77.2547 86.61 72.21V72.2067ZM87.54 29.4C84.6927 24.2181 80.8074 19.6792 76.1267 16.0667L76.2234 15.9433C80.9177 19.5726 84.8132 24.1308 87.6667 29.3333C90.529 34.5268 92.2773 40.2598 92.8 46.1667H92.6434C92.1241 40.2853 90.3861 34.5764 87.54 29.4033V29.4ZM74.04 13.3067L74.1267 13.1767C74.88 13.6633 75.6067 14.1767 76.33 14.7167C77.0534 15.2567 77.7534 15.81 78.4334 16.3833L78.33 16.5033C77.6634 15.9233 76.9467 15.3733 76.2367 14.8367C75.5267 14.3 74.79 13.7967 74.04 13.31V13.3067ZM80.3967 18.1567L80.73 17.8233C83.0705 20.0584 85.1616 22.5407 86.9667 25.2267L86.5767 25.49C84.7863 22.8315 82.7144 20.3739 80.3967 18.16V18.1567ZM88.8867 27.2067L88.5367 26.6133L88.17 26.03C87.9334 25.64 87.6734 25.26 87.42 24.8767C86.9067 24.1167 86.3767 23.3667 85.8134 22.64L85.94 22.5433C86.5034 23.2733 87.0334 24.0267 87.5534 24.7867C87.8034 25.1733 88.0634 25.5533 88.3034 25.9467L88.67 26.5333L89.0234 27.1267L88.8867 27.2067ZM88.5 25.6667C86.3348 22.248 83.7253 19.1319 80.74 16.4L81.1667 15.9367C84.1919 18.7073 86.8361 21.8671 89.03 25.3333L88.5 25.6667ZM69.11 9.17667L68.4867 8.88667L67.8534 8.61L67.54 8.47333L67.2067 8.34333L66.57 8.08C65.7134 7.74667 64.85 7.43 63.9767 7.15L64.0234 7C64.9034 7.28 65.7667 7.6 66.6267 7.93667L67.2667 8.19667L67.6 8.32667L67.9167 8.46667L68.55 8.74333C68.76 8.83667 68.9667 8.93667 69.1767 9.03333L69.11 9.17667ZM37.49 7.29667C40.5962 6.3862 43.7933 5.82057 47.0234 5.61L47.0534 6.08C43.8574 6.28905 40.6941 6.84794 37.62 7.74667L37.49 7.29667ZM44.2167 5.29667L44.1967 5.14C46.0246 4.9097 47.8644 4.78727 49.7067 4.77333V4.93333C47.8711 4.94728 46.0379 5.06971 44.2167 5.3V5.29667ZM36.2734 6.56333L36.0834 5.96333C39.9965 4.72983 44.0568 4.0247 48.1567 3.86667L48.1834 4.49667C44.1387 4.65188 40.1331 5.34807 36.2734 6.56667V6.56333ZM28.8534 13.37L29.09 13.78C26.5779 15.2352 24.2231 16.9466 22.0634 18.8867L21.75 18.5333C23.9341 16.5728 26.3145 14.8425 28.8534 13.37ZM17.52 22.6267L17.3334 22.5C20.4301 18.4024 24.3904 15.0362 28.9334 12.64L29.0334 12.8233C24.5199 15.2067 20.5859 18.5535 17.51 22.6267H17.52ZM23.3867 11.8133L24.08 11.3333L24.5434 12.0367L23.8767 12.4933L23.3867 11.8133ZM20.0534 15.6L19.4834 15L20.1 14.43L20.6634 15.0567L20.0534 15.6ZM27.1034 12.7267L27.2134 12.9033C23.5657 15.1526 20.2683 17.9255 17.4267 21.1333L17.27 21C20.1283 17.7751 23.4448 14.9875 27.1134 12.7267H27.1034ZM15.2734 21.2733L15.15 21.1733C16.3278 19.7562 17.5889 18.4105 18.9267 17.1433L19.0334 17.2567C17.7011 18.5194 16.4455 19.8607 15.2734 21.2733ZM18.8134 23.4067C20.398 21.5293 22.1805 19.8284 24.13 18.3333L24.26 18.5C20.3707 21.4788 17.1738 25.2659 14.89 29.6L14.7034 29.5033C15.8505 27.3295 17.2285 25.2854 18.8134 23.4067ZM22.48 20.4067C22.6534 20.2467 22.8134 20.0733 23.0034 19.9267C25.0935 18.0551 27.3711 16.4041 29.8 15L30.0367 15.41C27.6405 16.8021 25.3942 18.4374 23.3334 20.29L23.93 20.9567C22.0366 22.6539 20.3119 24.5304 18.78 26.56L17.69 25.7433C19.1289 23.831 20.734 22.0496 22.4867 20.42L22.48 20.4067ZM32.61 16.5267L32.1934 15.7367C35.6428 13.9263 39.3138 12.5737 43.1134 11.7133L43.4134 13.0467C40.066 13.8038 36.8208 14.9575 33.7467 16.4833C33.44 16.63 33.14 16.7933 32.8367 16.9467C29.2691 18.8186 25.9825 21.1828 23.0734 23.97L22.74 23.6367C25.6804 20.8156 29.0029 18.4222 32.61 16.5267ZM29.0767 24.63L29.41 24.37L29.9367 25.0367L29.6034 25.2867L29.2934 25.5567L28.75 24.9133L29.0767 24.63ZM29.7434 27.6633L30.39 27.1033C30.8134 26.72 31.2734 26.38 31.7234 26.0267C31.9434 25.8433 32.18 25.6933 32.4134 25.52L33.11 25.0233C33.3467 24.8667 33.5867 24.7167 33.8267 24.56L34.1867 24.33L34.3667 24.2133L34.55 24.11L34.66 24.29L34.4767 24.3933L34.2967 24.51L33.94 24.74L33.2267 25.1967L32.5367 25.69C32.3067 25.8533 32.07 26.0233 31.8534 26.1933C31.41 26.5467 30.9534 26.88 30.5367 27.2633L29.8934 27.8167L29.2767 28.4033L29.1334 28.25L29.7434 27.6633ZM38.8334 22.79L38.9134 22.9833C36.8688 23.8197 34.9281 24.8902 33.13 26.1733L33 26C34.8132 24.7071 36.7708 23.6298 38.8334 22.79ZM35.7834 20.3333L36.55 20L36.8834 20.77L36.1367 21.1033L35.7834 20.3333ZM37.3334 19.6667L38.1134 19.3567L38.42 20.1433L37.6567 20.4433L37.3334 19.6667ZM38.9 19.06L39.6967 18.79L39.96 19.59L39.1834 19.8533L38.9 19.06ZM50 19.64V19.9567H49.7134V19.6667L50 19.64ZM48.7734 17.9733L48.74 17.1333L49.58 17.1133V17.9533L48.7734 17.9733ZM49.44 19.9733H49.1534V19.6567H49.4434L49.44 19.9733ZM48.8634 19.9733H48.5767V19.66H48.87L48.8634 19.9733ZM48.2734 20L48 20.0333L47.9767 19.7167L48.2667 19.6967L48.2734 20ZM47.14 18.08L47.0634 17.2433L47.9034 17.18L47.9567 18.02L47.14 18.08ZM47.6967 20.0433L47.41 20.0667L47.3834 19.7533L47.6734 19.73L47.6967 20.0433ZM47.0934 19.7733L47.1234 20.0867C47.0267 20.0867 46.9334 20.0867 46.8367 20.1133L46.8034 19.8C46.9 19.7967 47 19.79 47.0934 19.7833V19.7733ZM72.4934 73.9667C72.29 74.16 72.09 74.3567 71.8767 74.5367L71.3134 73.9067C71.5234 73.7333 71.72 73.5433 71.9167 73.3533L72.4934 73.9667ZM71.24 75.0867L70.9234 75.36L70.59 75.62L70.0634 74.9533L70.3967 74.7033L70.7067 74.4333L71.24 75.0867ZM68.7634 75.9567L69.0967 75.72C69.21 75.6433 69.3134 75.5533 69.43 75.47L69.94 76.1367C69.8267 76.22 69.7234 76.3133 69.6067 76.3933L69.2734 76.6367L68.7634 75.9567ZM64.5267 89.8233L63.7367 90.1067L63.4634 89.31L64.2334 89.0333L64.5267 89.8233ZM62.94 90.37L62.1367 90.6133L61.9034 89.8033L62.6867 89.5667L62.94 90.37ZM61.3234 90.8567L60.5234 91.12L60.27 90.3167L61.05 90.06L61.3234 90.8567ZM59.4867 90.5533L59.72 91.3633L58.91 91.5833L58.6967 90.77L59.4867 90.5533ZM65.8567 92.22L65.91 92.3667C64.1742 92.9851 62.4033 93.5004 60.6067 93.91L60.57 93.7567C62.3612 93.3487 64.1266 92.8344 65.8567 92.2167V92.22ZM63.05 92.52L62.9167 92.0667C65.9941 91.175 68.9633 89.9453 71.77 88.4L71.9967 88.8133C69.16 90.3736 66.1596 91.6156 63.05 92.5167V92.52ZM72 88.08C74.4777 86.6445 76.8088 84.9699 78.96 83.08L79.3767 83.5533C77.1933 85.4663 74.8288 87.1621 72.3167 88.6167L72 88.08ZM80.1234 83.5333L80.2267 83.65C78.8537 84.8819 77.4066 86.0285 75.8934 87.0833L75.8034 86.9567C77.3068 85.9036 78.745 84.7604 80.11 83.5333H80.1234ZM91.6067 67.3333L91.7534 67.3933C91.0422 69.0945 90.2285 70.7508 89.3167 72.3533L89.18 72.2767C90.0879 70.6793 90.8982 69.0285 91.6067 67.3333ZM92.78 65.6333C93.4735 63.7332 94.0392 61.7889 94.4734 59.8133L95.09 59.9467C94.2131 63.9585 92.7957 67.8327 90.8767 71.4633L90.32 71.17C91.2615 69.3843 92.0833 67.538 92.78 65.6433V65.6333ZM94.3734 58.7567C94.1367 59.96 93.8534 61.1567 93.52 62.3367C93.1645 63.5878 92.7556 64.82 92.2934 66.0333L92.1467 65.98C92.6034 64.77 93.0134 63.54 93.3667 62.2933C93.7 61.1178 93.9834 59.9289 94.2167 58.7267L93.55 58.5933C94.1041 55.7624 94.3843 52.8847 94.3867 50H93.9667C93.9672 47.1387 93.6892 44.2841 93.1367 41.4767L93.7567 41.3533C94.3142 44.2018 94.5955 47.0975 94.5967 50H96.17C96.1686 53.0044 95.8772 56.0016 95.3 58.95L94.3734 58.7567ZM94.1034 40.6833L94.2567 40.65C94.31 40.8733 94.35 41.1033 94.3934 41.3167L94.5234 41.9833L94.6367 42.6667C94.6734 42.8933 94.7134 43.12 94.7434 43.35C94.8067 43.8033 94.8734 44.26 94.92 44.72C94.9467 44.9467 94.9734 45.1767 94.9967 45.4067L95.06 46.0933H94.9034L94.84 45.4067C94.8167 45.18 94.79 44.9533 94.7634 44.7233C94.7167 44.2667 94.65 43.8133 94.5867 43.3567C94.5567 43.13 94.5167 42.9033 94.48 42.69L94.3667 42.0233L94.24 41.3567C94.1934 41.1433 94.1534 40.9167 94.1034 40.6933V40.6833ZM73.85 8.68333C76.8523 10.4206 79.6565 12.4794 82.2134 14.8233C83.4901 15.994 84.703 17.2324 85.8467 18.5333L86.06 18.7767L86.27 19.0267L86.69 19.52C86.9667 19.8533 87.2367 20.1867 87.51 20.52C87.7834 20.8533 88.0367 21.2067 88.2967 21.5533L88.68 22.08C88.8067 22.2533 88.9333 22.4133 89.0567 22.6067L88.67 22.88C88.55 22.7 88.4234 22.5267 88.2967 22.3533L87.9167 21.8367C87.6634 21.5033 87.3967 21.1533 87.1367 20.8133C86.8767 20.4733 86.6034 20.1467 86.3267 19.8133L85.9134 19.3333L85.7034 19.0867L85.49 18.8467C82.0889 14.9694 78.0772 11.6737 73.6134 9.09L73.85 8.68333ZM58.78 3.38667L58.5967 4.36667C63.1854 5.22595 67.617 6.77696 71.74 8.96667L71.9867 8.50333C68.4371 6.61911 64.6593 5.20073 60.7467 4.28333L60.7834 4.13C64.7086 5.05037 68.4988 6.47322 72.06 8.36333L72.2067 8.08667C72.54 8.26667 72.8934 8.45667 73.2334 8.64667L72.36 10.2C66.6475 6.98468 60.3068 5.04359 53.7734 4.51L53.84 3.72667C52.5689 3.62667 51.2978 3.57444 50.0267 3.57V4.35667H48.7934L48.7734 3.49C43.3691 3.63304 38.0312 4.71821 33 6.69667L32.91 6.5C37.9686 4.51612 43.3348 3.43093 48.7667 3.29333L48.7467 2.59C52.1099 2.50005 55.4732 2.7671 58.78 3.38667ZM35.6667 4.51C38.9778 3.47286 42.3926 2.80218 45.85 2.51L45.8934 2.98C39.0202 3.56317 32.3601 5.65386 26.3867 9.10333L26.15 8.69667C29.1603 6.95867 32.3515 5.55479 35.6667 4.51ZM25.95 11.1767L25.25 11.6033L24.8067 10.8867L25.5234 10.4533L25.95 11.1767ZM25.2667 9.90333L25.35 10.0367C21.835 12.2061 18.6208 14.8286 15.79 17.8367L15.6667 17.73C18.5047 14.7137 21.7267 12.0834 25.25 9.90667L25.2667 9.90333ZM15.29 18.9733L15.9167 19.5367L15.37 20.15L14.7334 19.6L15.29 18.9733ZM14.1967 20.2467L14.8634 20.78L14.3334 21.4167L13.6667 20.9L14.1967 20.2467ZM13.17 21.58L13.8367 22.08L13.3567 22.7467L12.6667 22.2533L13.17 21.58ZM12.21 22.96L12.9134 23.4233L12.4667 24.11L11.75 23.6667L12.21 22.96ZM14.4167 22.09L14.54 22.1867C13.4071 23.6328 12.3619 25.1455 11.41 26.7167L11.2767 26.6333C12.2325 25.0559 13.281 23.5366 14.4167 22.0833V22.09ZM31.2267 91.1633C31.013 91.3351 30.7439 91.4229 30.47 91.41C30.1392 91.4055 29.8143 91.3209 29.5234 91.1633C28.4534 87.71 25.9967 80.3133 25.19 77.93C21.1567 66.5033 17.2534 55.08 13.1567 43.6533C11.96 40.2833 11.2034 38.0633 8.55669 37.7333L7.04669 37.57C6.85659 37.2663 6.77187 36.9084 6.80561 36.5517C6.83935 36.195 6.98968 35.8593 7.23336 35.5967C8.93669 35.7633 11.77 35.8433 13.7234 35.8433C15.4867 35.8433 18.7 35.7633 20.9067 35.5967C21.4734 35.8433 21.41 36.9933 21.0334 37.57L19.5834 37.7333C18.25 37.9 17.5034 38.4 17.5034 39.1333C18.3298 42.874 19.4248 46.5502 20.78 50.1333C24.31 60.4067 28.0267 70.6833 31.68 80.8C33.1934 76.69 34.8934 72.0867 36.53 67.4667C36.9723 66.3786 37.3072 65.2499 37.53 64.0967C37.4511 63.3661 37.2809 62.6482 37.0234 61.96C34.82 55.3833 32.49 48.8067 30.0934 42.2333C29.15 39.6833 28.2034 37.9567 26.0634 37.71L24.55 37.5467C24.3329 37.2564 24.2264 36.8983 24.2497 36.5367C24.2729 36.175 24.4243 35.8334 24.6767 35.5733C26.5034 35.74 28.8967 35.82 31.4167 35.82C33.7294 35.8553 36.0424 35.773 38.3467 35.5733C38.79 35.82 38.8534 36.89 38.4734 37.5467L36.8367 37.71C34.38 37.9567 34.3167 38.5333 35.5034 42.2333C36.8367 46.26 38.59 51.44 40.3534 56.5333C41.55 53.33 42.6867 50.2 44.07 45.7667C46.34 38.7667 46.0234 37.8767 44.0067 37.71L42.1167 37.5467C41.6767 36.7233 41.8034 35.82 42.2434 35.5733C43.9467 35.74 45.8367 35.82 48.1667 35.82C50.2467 35.82 52.7667 35.74 54.2134 35.5733C54.6567 35.82 54.72 36.89 54.34 37.5467L52.5134 37.71C49.8667 37.9567 48.7334 41.6567 47.3467 45.0433C46.0134 48.0833 43.3767 55.2367 42.4334 58.1133C42.1609 58.7442 41.9704 59.4074 41.8667 60.0867C41.9277 60.7607 42.0756 61.4239 42.3067 62.06C44.45 68.3933 46.64 74.5533 48.7334 80.8C50.6867 75.0467 52.5767 69.2933 54.4 63.4667C55.66 59.52 59 48.5867 59.44 47.11C60.2267 44.6589 60.858 42.1606 61.33 39.63C61.33 38.4767 60.5734 37.82 59.25 37.7367L57.4234 37.5733C57.182 37.2976 57.0543 36.9405 57.0661 36.5742C57.0778 36.2079 57.2282 35.8597 57.4867 35.6C59.88 35.7667 61.5834 35.8467 63.5367 35.8467C65.4918 35.8645 67.4466 35.7822 69.3934 35.6C69.9 35.8467 69.9634 36.9167 69.52 37.5733L68.3234 37.7367C65.1734 38.15 64.6067 40.6133 60.8267 52.04L56.2267 65.9333C53.4567 74.3167 50.9367 82.3733 48.3534 91.1667C48.1397 91.3385 47.8706 91.4262 47.5967 91.4133C47.2848 91.4168 46.9784 91.3312 46.7134 91.1667C44.7134 83.8333 41.0467 73.5767 39.09 67.8333C36.8334 73.82 33.0534 84.3333 31.2267 91.1633ZM44.85 96.0367L44.8767 95.83C50.2959 96.4735 55.7863 96.1519 61.0934 94.88L61.14 95.0867C55.8088 96.3631 50.2935 96.6847 44.85 96.0367ZM50.2 97.1833V96.71C57.0924 96.7018 63.8991 95.1816 70.14 92.2567L70.34 92.6833C64.0369 95.6391 57.1618 97.1752 50.2 97.1833ZM85.97 80.9133L85.2134 80.2467C82.1733 83.7872 78.618 86.8504 74.6667 89.3333L74.9434 89.7767C78.3427 87.6411 81.4556 85.0804 84.2067 82.1567L84.32 82.2633C81.5606 85.1976 78.4375 87.7673 75.0267 89.91L75.1967 90.1767C74.8634 90.3833 74.53 90.59 74.1967 90.7867L73.6234 89.8233C70.083 91.8643 66.2862 93.4236 62.3334 94.46L62.1734 93.85C66.0767 92.8338 69.8266 91.3002 73.3234 89.29L73.3067 89.26C74.7101 88.427 76.0676 87.519 77.3734 86.54C78.678 85.5603 79.9297 84.5122 81.1234 83.4C83.5159 81.177 85.6606 78.7015 87.52 76.0167L88.1667 76.4667C88.8934 75.42 89.5834 74.35 90.2167 73.2433L89.55 72.85C89.7567 72.4933 89.9534 72.1333 90.1567 71.7733L90.9167 72.19C93.4945 67.4355 95.2152 62.2644 96 56.9133L96.2067 56.9433C95.8024 59.6488 95.1611 62.3135 94.29 64.9067C93.4293 67.4551 92.352 69.9253 91.07 72.29L91.69 72.6233C90.0794 75.5796 88.1621 78.3582 85.97 80.9133ZM92.8067 69.9467C95.7177 63.7003 97.2231 56.8914 97.2167 50H97.69C97.6957 56.9607 96.1744 63.8379 93.2334 70.1467L92.8067 69.9467Z" fill="#CBCBCB"/>
</svg>
