<svg width="50" height="50" viewBox="0 0 50 50" fill="none" xmlns="http://www.w3.org/2000/svg">
<g clip-path="url(#clip0_110_116)">
<path d="M25 50C20.0555 50 15.222 48.5338 11.1108 45.7868C6.99953 43.0397 3.79521 39.1353 1.90302 34.5671C0.0108322 29.9989 -0.484251 24.9723 0.480379 20.1228C1.44501 15.2732 3.82603 10.8187 7.32234 7.32234C10.8187 3.82603 15.2732 1.44501 20.1228 0.480379C24.9723 -0.484251 29.9989 0.0108322 34.5671 1.90302C39.1353 3.79521 43.0397 6.99953 45.7868 11.1108C48.5338 15.222 50 20.0555 50 25C49.9925 31.6281 47.3562 37.9826 42.6694 42.6694C37.9826 47.3562 31.6281 49.9925 25 50ZM25 2.08834C20.4685 2.08834 16.0388 3.43209 12.271 5.94966C8.50317 8.46722 5.56652 12.0455 3.83239 16.2321C2.09826 20.4187 1.64453 25.0254 2.52859 29.4699C3.41264 33.9143 5.59476 37.9967 8.79902 41.201C12.0033 44.4053 16.0857 46.5874 20.5302 47.4714C24.9746 48.3555 29.5814 47.9018 33.7679 46.1676C37.9545 44.4335 41.5328 41.4969 44.0504 37.7291C46.5679 33.9612 47.9117 29.5315 47.9117 25C47.9046 18.9256 45.4885 13.1021 41.1932 8.80681C36.898 4.51157 31.0744 2.0954 25 2.08834Z" fill="#CBCBCB"/>
<path d="M25.38 26.2333C25.2663 26.3051 25.1345 26.3432 25 26.3433C24.8643 26.3429 24.7314 26.3042 24.6167 26.2317L12.145 18.3333C12.0458 18.2725 11.9323 18.2391 11.816 18.2366C11.6996 18.234 11.5847 18.2625 11.483 18.3189C11.3813 18.3754 11.2964 18.4579 11.237 18.5579C11.1776 18.658 11.1459 18.772 11.145 18.8883V32.8883C11.145 33.3746 11.3382 33.8409 11.682 34.1847C12.0258 34.5285 12.4921 34.7217 12.9784 34.7217H37.0317C37.5179 34.7217 37.9842 34.5285 38.328 34.1847C38.6719 33.8409 38.865 33.3746 38.865 32.8883V18.9817C38.8645 18.8652 38.8329 18.7509 38.7737 18.6507C38.7144 18.5504 38.6295 18.4677 38.5278 18.411C38.426 18.3543 38.311 18.3258 38.1945 18.3282C38.078 18.3307 37.9643 18.3641 37.865 18.425L25.38 26.2333Z" fill="#CBCBCB"/>
<path d="M36.5983 15.2917H13.5533C13.4543 15.2893 13.3572 15.3199 13.2774 15.3785C13.1976 15.4372 13.1394 15.5206 13.112 15.6158C13.0846 15.711 13.0895 15.8126 13.1259 15.9047C13.1623 15.9968 13.2282 16.0743 13.3133 16.125L25 23.5267L36.8333 16.12C36.9156 16.0685 36.9789 15.9917 37.0138 15.9011C37.0487 15.8105 37.0532 15.711 37.0267 15.6176C37.0002 15.5242 36.9441 15.442 36.8669 15.3832C36.7896 15.3244 36.6954 15.2923 36.5983 15.2917Z" fill="#CBCBCB"/>
</g>
<defs>
<clipPath id="clip0_110_116">
<rect width="50" height="50" fill="white"/>
</clipPath>
</defs>
</svg>
