<svg width="50" height="50" viewBox="0 0 50 50" fill="none" xmlns="http://www.w3.org/2000/svg">
<g clip-path="url(#clip0_110_107)">
<path d="M25 50C20.0555 50 15.222 48.5338 11.1108 45.7868C6.99953 43.0397 3.79521 39.1353 1.90302 34.5671C0.0108322 29.9989 -0.484251 24.9723 0.480379 20.1228C1.44501 15.2732 3.82603 10.8187 7.32234 7.32234C10.8187 3.82603 15.2732 1.44501 20.1228 0.480379C24.9723 -0.484251 29.9989 0.0108322 34.5671 1.90302C39.1353 3.79521 43.0397 6.99953 45.7868 11.1108C48.5338 15.222 50 20.0555 50 25C49.9925 31.6281 47.3562 37.9826 42.6694 42.6694C37.9826 47.3562 31.6281 49.9925 25 50ZM25 2.08834C20.4685 2.08834 16.0388 3.43209 12.271 5.94966C8.50317 8.46722 5.56652 12.0455 3.83239 16.2321C2.09826 20.4187 1.64453 25.0254 2.52859 29.4699C3.41264 33.9143 5.59476 37.9967 8.79902 41.201C12.0033 44.4053 16.0857 46.5874 20.5302 47.4714C24.9746 48.3555 29.5814 47.9018 33.7679 46.1676C37.9545 44.4335 41.5328 41.4969 44.0504 37.7291C46.5679 33.9612 47.9117 29.5315 47.9117 25C47.9046 18.9256 45.4885 13.1021 41.1932 8.80681C36.898 4.51157 31.0744 2.0954 25 2.08834Z" fill="#CBCBCB"/>
<path d="M30.3568 9.47501H19.6418C19.0548 9.47676 18.4925 9.7107 18.0775 10.1257C17.6624 10.5407 17.4285 11.1031 17.4268 11.69V38.31C17.4285 38.8969 17.6624 39.4593 18.0775 39.8743C18.4925 40.2893 19.0548 40.5233 19.6418 40.525H30.3568C30.944 40.5237 31.5068 40.29 31.9221 39.8749C32.3375 39.4598 32.5717 38.8972 32.5734 38.31V11.69C32.5717 11.1028 32.3375 10.5402 31.9221 10.1251C31.5068 9.71006 30.944 9.47633 30.3568 9.47501ZM22.3901 11.3083H27.6101C27.6757 11.3136 27.7369 11.3433 27.7815 11.3917C27.8261 11.44 27.8509 11.5034 27.8509 11.5692C27.8509 11.635 27.8261 11.6983 27.7815 11.7467C27.7369 11.795 27.6757 11.8248 27.6101 11.83H22.3901C22.3245 11.8248 22.2633 11.795 22.2187 11.7467C22.1741 11.6983 22.1493 11.635 22.1493 11.5692C22.1493 11.5034 22.1741 11.44 22.2187 11.3917C22.2633 11.3433 22.3245 11.3136 22.3901 11.3083ZM25.0001 39.8017C24.6787 39.8017 24.3645 39.7064 24.0973 39.5278C23.8301 39.3493 23.6218 39.0955 23.4988 38.7985C23.3758 38.5016 23.3436 38.1749 23.4063 37.8597C23.469 37.5444 23.6238 37.2549 23.851 37.0276C24.0783 36.8004 24.3678 36.6456 24.6831 36.5829C24.9983 36.5202 25.325 36.5524 25.622 36.6754C25.9189 36.7984 26.1727 37.0066 26.3512 37.2739C26.5298 37.5411 26.6251 37.8553 26.6251 38.1767C26.6253 38.3901 26.5834 38.6015 26.5018 38.7988C26.4203 38.996 26.3006 39.1753 26.1496 39.3262C25.9987 39.4772 25.8195 39.5968 25.6222 39.6784C25.425 39.76 25.2136 39.8019 25.0001 39.8017ZM31.4601 35.81H18.5401V13.6533H31.4601V35.81Z" fill="#CBCBCB"/>
</g>
<defs>
<clipPath id="clip0_110_107">
<rect width="50" height="50" fill="white"/>
</clipPath>
</defs>
</svg>
